<svg width="82" height="68" viewBox="0 0 82 68" fill="none" xmlns="http://www.w3.org/2000/svg">
<rect x="2" y="35" width="60" height="2" rx="1" fill="#9DDC9D"/>
<rect x="2" y="45" width="54" height="2" rx="1" fill="#9DDC9D"/>
<rect x="2" y="55" width="48" height="2" rx="1" fill="#9DDC9D"/>
<path d="M74.1025 35.5098V36.207C74.1025 36.541 74.0693 36.8262 74.0029 37.0625C73.9385 37.2969 73.8447 37.4873 73.7217 37.6338C73.5986 37.7803 73.4512 37.8877 73.2793 37.9561C73.1094 38.0244 72.9189 38.0586 72.708 38.0586C72.54 38.0586 72.3838 38.0371 72.2393 37.9941C72.0967 37.9512 71.9678 37.8838 71.8525 37.792C71.7373 37.7002 71.6387 37.582 71.5566 37.4375C71.4766 37.291 71.4141 37.1162 71.3691 36.9131C71.3262 36.71 71.3047 36.4746 71.3047 36.207V35.5098C71.3047 35.1738 71.3379 34.8906 71.4043 34.6602C71.4707 34.4277 71.5654 34.2393 71.6885 34.0947C71.8115 33.9482 71.958 33.8418 72.1279 33.7754C72.2998 33.709 72.4912 33.6758 72.7021 33.6758C72.8721 33.6758 73.0283 33.6973 73.1709 33.7402C73.3154 33.7812 73.4443 33.8467 73.5576 33.9365C73.6729 34.0264 73.7705 34.1436 73.8506 34.2881C73.9326 34.4307 73.9951 34.6035 74.0381 34.8066C74.0811 35.0078 74.1025 35.2422 74.1025 35.5098ZM73.3965 36.3066V35.4043C73.3965 35.2344 73.3867 35.085 73.3672 34.9561C73.3477 34.8252 73.3184 34.7148 73.2793 34.625C73.2422 34.5332 73.1953 34.459 73.1387 34.4023C73.082 34.3438 73.0176 34.3018 72.9453 34.2764C72.873 34.249 72.792 34.2354 72.7021 34.2354C72.5928 34.2354 72.4951 34.2568 72.4092 34.2998C72.3232 34.3408 72.251 34.4072 72.1924 34.499C72.1338 34.5908 72.0889 34.7119 72.0576 34.8623C72.0283 35.0107 72.0137 35.1914 72.0137 35.4043V36.3066C72.0137 36.4785 72.0234 36.6299 72.043 36.7607C72.0625 36.8916 72.0918 37.0039 72.1309 37.0977C72.1699 37.1895 72.2168 37.2656 72.2715 37.3262C72.3281 37.3848 72.3926 37.4277 72.4648 37.4551C72.5391 37.4824 72.6201 37.4961 72.708 37.4961C72.8193 37.4961 72.918 37.4746 73.0039 37.4316C73.0898 37.3887 73.1621 37.3203 73.2207 37.2266C73.2793 37.1309 73.3232 37.0068 73.3525 36.8545C73.3818 36.7021 73.3965 36.5195 73.3965 36.3066ZM74.8027 37.6484C74.8027 37.5391 74.8398 37.4473 74.9141 37.373C74.9883 37.2969 75.0889 37.2588 75.2158 37.2588C75.3447 37.2588 75.4453 37.2969 75.5176 37.373C75.5918 37.4473 75.6289 37.5391 75.6289 37.6484C75.6289 37.7578 75.5918 37.8496 75.5176 37.9238C75.4453 37.998 75.3447 38.0352 75.2158 38.0352C75.0889 38.0352 74.9883 37.998 74.9141 37.9238C74.8398 37.8496 74.8027 37.7578 74.8027 37.6484ZM79.2354 33.7344V34.1211L77.5303 38H76.7861L78.4883 34.2969H76.2793V33.7344H79.2354Z" fill="#333333"/>
<path d="M74.1025 45.5098V46.207C74.1025 46.541 74.0693 46.8262 74.0029 47.0625C73.9385 47.2969 73.8447 47.4873 73.7217 47.6338C73.5986 47.7803 73.4512 47.8877 73.2793 47.9561C73.1094 48.0244 72.9189 48.0586 72.708 48.0586C72.54 48.0586 72.3838 48.0371 72.2393 47.9941C72.0967 47.9512 71.9678 47.8838 71.8525 47.792C71.7373 47.7002 71.6387 47.582 71.5566 47.4375C71.4766 47.291 71.4141 47.1162 71.3691 46.9131C71.3262 46.71 71.3047 46.4746 71.3047 46.207V45.5098C71.3047 45.1738 71.3379 44.8906 71.4043 44.6602C71.4707 44.4277 71.5654 44.2393 71.6885 44.0947C71.8115 43.9482 71.958 43.8418 72.1279 43.7754C72.2998 43.709 72.4912 43.6758 72.7021 43.6758C72.8721 43.6758 73.0283 43.6973 73.1709 43.7402C73.3154 43.7812 73.4443 43.8467 73.5576 43.9365C73.6729 44.0264 73.7705 44.1436 73.8506 44.2881C73.9326 44.4307 73.9951 44.6035 74.0381 44.8066C74.0811 45.0078 74.1025 45.2422 74.1025 45.5098ZM73.3965 46.3066V45.4043C73.3965 45.2344 73.3867 45.085 73.3672 44.9561C73.3477 44.8252 73.3184 44.7148 73.2793 44.625C73.2422 44.5332 73.1953 44.459 73.1387 44.4023C73.082 44.3438 73.0176 44.3018 72.9453 44.2764C72.873 44.249 72.792 44.2354 72.7021 44.2354C72.5928 44.2354 72.4951 44.2568 72.4092 44.2998C72.3232 44.3408 72.251 44.4072 72.1924 44.499C72.1338 44.5908 72.0889 44.7119 72.0576 44.8623C72.0283 45.0107 72.0137 45.1914 72.0137 45.4043V46.3066C72.0137 46.4785 72.0234 46.6299 72.043 46.7607C72.0625 46.8916 72.0918 47.0039 72.1309 47.0977C72.1699 47.1895 72.2168 47.2656 72.2715 47.3262C72.3281 47.3848 72.3926 47.4277 72.4648 47.4551C72.5391 47.4824 72.6201 47.4961 72.708 47.4961C72.8193 47.4961 72.918 47.4746 73.0039 47.4316C73.0898 47.3887 73.1621 47.3203 73.2207 47.2266C73.2793 47.1309 73.3232 47.0068 73.3525 46.8545C73.3818 46.7021 73.3965 46.5195 73.3965 46.3066ZM74.8027 47.6484C74.8027 47.5391 74.8398 47.4473 74.9141 47.373C74.9883 47.2969 75.0889 47.2588 75.2158 47.2588C75.3447 47.2588 75.4453 47.2969 75.5176 47.373C75.5918 47.4473 75.6289 47.5391 75.6289 47.6484C75.6289 47.7578 75.5918 47.8496 75.5176 47.9238C75.4453 47.998 75.3447 48.0352 75.2158 48.0352C75.0889 48.0352 74.9883 47.998 74.9141 47.9238C74.8398 47.8496 74.8027 47.7578 74.8027 47.6484ZM78.5352 43.708H78.623V44.2852H78.5732C78.3213 44.2852 78.1035 44.3242 77.9199 44.4023C77.7383 44.4805 77.5889 44.5879 77.4717 44.7246C77.3545 44.8613 77.2666 45.0215 77.208 45.2051C77.1514 45.3867 77.123 45.5801 77.123 45.7852V46.4561C77.123 46.626 77.1416 46.7764 77.1787 46.9072C77.2158 47.0361 77.2676 47.1445 77.334 47.2324C77.4023 47.3184 77.4805 47.3838 77.5684 47.4287C77.6562 47.4736 77.751 47.4961 77.8525 47.4961C77.958 47.4961 78.0537 47.4746 78.1396 47.4316C78.2256 47.3867 78.2988 47.3252 78.3594 47.2471C78.4199 47.1689 78.4658 47.0762 78.4971 46.9688C78.5283 46.8613 78.5439 46.7441 78.5439 46.6172C78.5439 46.4961 78.5283 46.3828 78.4971 46.2773C78.4678 46.1699 78.4238 46.0762 78.3652 45.9961C78.3066 45.9141 78.2334 45.8506 78.1455 45.8057C78.0596 45.7588 77.96 45.7354 77.8467 45.7354C77.7061 45.7354 77.5781 45.7686 77.4629 45.835C77.3496 45.9014 77.2578 45.9883 77.1875 46.0957C77.1191 46.2012 77.082 46.3135 77.0762 46.4326L76.8066 46.3447C76.8223 46.1631 76.8623 46 76.9268 45.8555C76.9932 45.7109 77.0801 45.5879 77.1875 45.4863C77.2949 45.3848 77.4189 45.3076 77.5596 45.2549C77.7021 45.2002 77.8584 45.1729 78.0283 45.1729C78.2354 45.1729 78.415 45.2119 78.5674 45.29C78.7197 45.3682 78.8457 45.4746 78.9453 45.6094C79.0469 45.7422 79.1221 45.8945 79.1709 46.0664C79.2217 46.2363 79.2471 46.4141 79.2471 46.5996C79.2471 46.8047 79.2158 46.9961 79.1533 47.1738C79.0908 47.3496 78.999 47.5039 78.8779 47.6367C78.7588 47.7695 78.6133 47.873 78.4414 47.9473C78.2715 48.0215 78.0781 48.0586 77.8613 48.0586C77.6328 48.0586 77.4287 48.0146 77.249 47.9268C77.0713 47.8389 76.9199 47.7178 76.7949 47.5635C76.6719 47.4092 76.5781 47.2314 76.5137 47.0303C76.4492 46.8291 76.417 46.6162 76.417 46.3916V46.0986C76.417 45.7744 76.458 45.4688 76.54 45.1816C76.6221 44.8926 76.748 44.6377 76.918 44.417C77.0898 44.1963 77.3096 44.0234 77.5771 43.8984C77.8447 43.7715 78.1641 43.708 78.5352 43.708Z" fill="#333333"/>
<path d="M74.1025 55.5098V56.207C74.1025 56.541 74.0693 56.8262 74.0029 57.0625C73.9385 57.2969 73.8447 57.4873 73.7217 57.6338C73.5986 57.7803 73.4512 57.8877 73.2793 57.9561C73.1094 58.0244 72.9189 58.0586 72.708 58.0586C72.54 58.0586 72.3838 58.0371 72.2393 57.9941C72.0967 57.9512 71.9678 57.8838 71.8525 57.792C71.7373 57.7002 71.6387 57.582 71.5566 57.4375C71.4766 57.291 71.4141 57.1162 71.3691 56.9131C71.3262 56.71 71.3047 56.4746 71.3047 56.207V55.5098C71.3047 55.1738 71.3379 54.8906 71.4043 54.6602C71.4707 54.4277 71.5654 54.2393 71.6885 54.0947C71.8115 53.9482 71.958 53.8418 72.1279 53.7754C72.2998 53.709 72.4912 53.6758 72.7021 53.6758C72.8721 53.6758 73.0283 53.6973 73.1709 53.7402C73.3154 53.7812 73.4443 53.8467 73.5576 53.9365C73.6729 54.0264 73.7705 54.1436 73.8506 54.2881C73.9326 54.4307 73.9951 54.6035 74.0381 54.8066C74.0811 55.0078 74.1025 55.2422 74.1025 55.5098ZM73.3965 56.3066V55.4043C73.3965 55.2344 73.3867 55.085 73.3672 54.9561C73.3477 54.8252 73.3184 54.7148 73.2793 54.625C73.2422 54.5332 73.1953 54.459 73.1387 54.4023C73.082 54.3438 73.0176 54.3018 72.9453 54.2764C72.873 54.249 72.792 54.2354 72.7021 54.2354C72.5928 54.2354 72.4951 54.2568 72.4092 54.2998C72.3232 54.3408 72.251 54.4072 72.1924 54.499C72.1338 54.5908 72.0889 54.7119 72.0576 54.8623C72.0283 55.0107 72.0137 55.1914 72.0137 55.4043V56.3066C72.0137 56.4785 72.0234 56.6299 72.043 56.7607C72.0625 56.8916 72.0918 57.0039 72.1309 57.0977C72.1699 57.1895 72.2168 57.2656 72.2715 57.3262C72.3281 57.3848 72.3926 57.4277 72.4648 57.4551C72.5391 57.4824 72.6201 57.4961 72.708 57.4961C72.8193 57.4961 72.918 57.4746 73.0039 57.4316C73.0898 57.3887 73.1621 57.3203 73.2207 57.2266C73.2793 57.1309 73.3232 57.0068 73.3525 56.8545C73.3818 56.7021 73.3965 56.5195 73.3965 56.3066ZM74.8027 57.6484C74.8027 57.5391 74.8398 57.4473 74.9141 57.373C74.9883 57.2969 75.0889 57.2588 75.2158 57.2588C75.3447 57.2588 75.4453 57.2969 75.5176 57.373C75.5918 57.4473 75.6289 57.5391 75.6289 57.6484C75.6289 57.7578 75.5918 57.8496 75.5176 57.9238C75.4453 57.998 75.3447 58.0352 75.2158 58.0352C75.0889 58.0352 74.9883 57.998 74.9141 57.9238C74.8398 57.8496 74.8027 57.7578 74.8027 57.6484ZM77.1436 56.0166L76.5811 55.8789L76.8125 53.7344H79.1123V54.332H77.3984L77.2812 55.3779C77.3477 55.3389 77.4395 55.3008 77.5566 55.2637C77.6738 55.2246 77.8076 55.2051 77.958 55.2051C78.1592 55.2051 78.3389 55.2383 78.4971 55.3047C78.6572 55.3691 78.793 55.4639 78.9043 55.5889C79.0156 55.7119 79.1006 55.8623 79.1592 56.04C79.2178 56.2158 79.2471 56.4141 79.2471 56.6348C79.2471 56.832 79.2178 57.0166 79.1592 57.1885C79.1025 57.3604 79.0166 57.5117 78.9014 57.6426C78.7861 57.7734 78.6406 57.876 78.4648 57.9502C78.291 58.0225 78.085 58.0586 77.8467 58.0586C77.6689 58.0586 77.498 58.0332 77.334 57.9824C77.1719 57.9297 77.0264 57.8525 76.8975 57.751C76.7686 57.6475 76.665 57.5205 76.5869 57.3701C76.5088 57.2178 76.4639 57.043 76.4521 56.8457H77.1436C77.1611 56.9844 77.1992 57.1025 77.2578 57.2002C77.3184 57.2959 77.3984 57.3691 77.498 57.4199C77.5977 57.4707 77.7129 57.4961 77.8438 57.4961C77.9629 57.4961 78.0654 57.4756 78.1514 57.4346C78.2373 57.3916 78.3086 57.3311 78.3652 57.2529C78.4238 57.1729 78.4668 57.0791 78.4941 56.9717C78.5234 56.8643 78.5381 56.7451 78.5381 56.6143C78.5381 56.4893 78.5215 56.375 78.4883 56.2715C78.457 56.168 78.4092 56.0781 78.3447 56.002C78.2822 55.9258 78.2031 55.8672 78.1074 55.8262C78.0117 55.7832 77.9014 55.7617 77.7764 55.7617C77.6084 55.7617 77.4795 55.7861 77.3896 55.835C77.3018 55.8838 77.2197 55.9443 77.1436 56.0166Z" fill="#333333"/>
<path d="M6 13C6 11.8954 6.89543 11 8 11H40C41.1046 11 42 11.8954 42 13V37C42 38.1046 41.1046 39 40 39H8C6.89543 39 6 38.1046 6 37V13Z" fill="#F5F5F5"/>
<path d="M19.2857 23L10 33H36L30.4286 25.3077L25.7857 28.3846L19.2857 23Z" fill="white" stroke="#D0D0D0"/>
<circle cx="34" cy="20" r="2.5" fill="white" stroke="#D0D0D0"/>
</svg>
