<svg width="82" height="68" viewBox="0 0 82 68" fill="none" xmlns="http://www.w3.org/2000/svg">
<rect x="6" y="13" width="40" height="4" fill="#F4DBB9"/>
<rect x="36" y="45" width="40" height="4" fill="#F4DBB9"/>
<rect x="6" y="19" width="40" height="4" fill="#F4DBB9"/>
<rect x="36" y="51" width="40" height="4" fill="#F4DBB9"/>
<rect x="6" y="31" width="40" height="4" fill="#F4DBB9"/>
<rect x="6" y="25" width="40" height="4" fill="#F4DBB9"/>
<path d="M31.3536 46.4763C31.5488 46.6716 31.5488 46.9881 31.3536 47.1834L28.1716 50.3654C27.9763 50.5606 27.6597 50.5606 27.4645 50.3654C27.2692 50.1701 27.2692 49.8535 27.4645 49.6583L30.2929 46.8298L27.4645 44.0014C27.2692 43.8062 27.2692 43.4896 27.4645 43.2943C27.6597 43.0991 27.9763 43.0991 28.1716 43.2943L31.3536 46.4763ZM24.3651 45.9598L24.7169 45.6046L24.717 45.6046L24.3651 45.9598ZM23.0051 41.9161L23.5044 41.8898L23.5044 41.8898L23.0051 41.9161ZM22.9831 38.821C23.082 38.5631 23.3712 38.4343 23.629 38.5332C23.8868 38.632 24.0157 38.9212 23.9168 39.179L22.9831 38.821ZM31 47.3298C30.2759 47.3298 29.607 47.3749 28.9722 47.4193C28.3443 47.4631 27.7373 47.5074 27.1699 47.499C26.0139 47.4818 24.9522 47.2449 24.0133 46.3151L24.717 45.6046C25.405 46.2859 26.1736 46.484 27.1848 46.4991C27.701 46.5067 28.2616 46.4664 28.9025 46.4217C29.5364 46.3774 30.237 46.3298 31 46.3298L31 47.3298ZM24.0133 46.3151C23.4743 45.7814 23.1212 45.0631 22.892 44.3088C22.6617 43.551 22.547 42.7252 22.5058 41.9423L23.5044 41.8898C23.5427 42.618 23.6486 43.3592 23.8488 44.0181C24.0501 44.6805 24.3372 45.2285 24.7169 45.6046L24.0133 46.3151ZM22.5058 41.9423C22.4837 41.5227 22.5027 40.0738 22.9831 38.821L23.9168 39.179C23.5076 40.2462 23.4858 41.5362 23.5044 41.8898L22.5058 41.9423Z" fill="#D0D0D0"/>
</svg>
