<svg width="82" height="68" viewBox="0 0 82 68" fill="none" xmlns="http://www.w3.org/2000/svg">
<path d="M9.0625 33.4004C9.0625 33.6242 9.15139 33.8388 9.30963 33.997C9.46786 34.1552 9.68247 34.2441 9.90625 34.2441C10.13 34.2441 10.3446 34.1552 10.5029 33.997C10.6611 33.8388 10.75 33.6242 10.75 33.4004C10.75 33.1766 10.6611 32.962 10.5029 32.8038C10.3446 32.6455 10.13 32.5566 9.90625 32.5566C9.68247 32.5566 9.46786 32.6455 9.30963 32.8038C9.15139 32.962 9.0625 33.1766 9.0625 33.4004V33.4004ZM15.25 33.4004C15.25 33.6242 15.3389 33.8388 15.4971 33.997C15.6554 34.1552 15.87 34.2441 16.0938 34.2441C16.3175 34.2441 16.5321 34.1552 16.6904 33.997C16.8486 33.8388 16.9375 33.6242 16.9375 33.4004C16.9375 33.1766 16.8486 32.962 16.6904 32.8038C16.5321 32.6455 16.3175 32.5566 16.0938 32.5566C15.87 32.5566 15.6554 32.6455 15.4971 32.8038C15.3389 32.962 15.25 33.1766 15.25 33.4004V33.4004ZM13 27.125C8.65117 27.125 5.125 30.6512 5.125 35C5.125 39.3488 8.65117 42.875 13 42.875C17.3488 42.875 20.875 39.3488 20.875 35C20.875 30.6512 17.3488 27.125 13 27.125ZM17.623 39.623C17.0219 40.2242 16.3223 40.6953 15.5436 41.0258C14.7402 41.3668 13.8842 41.5391 13 41.5391C12.1158 41.5391 11.2598 41.3668 10.4547 41.0258C9.67716 40.6974 8.97089 40.221 8.3752 39.623C7.77402 39.0219 7.30293 38.3223 6.97246 37.5436C6.6332 36.7402 6.46094 35.8842 6.46094 35C6.46094 34.1158 6.6332 33.2598 6.97422 32.4547C7.30259 31.6772 7.77901 30.9709 8.37695 30.3752C8.97813 29.774 9.67773 29.3029 10.4564 28.9725C11.2598 28.6332 12.1158 28.4609 13 28.4609C13.8842 28.4609 14.7402 28.6332 15.5453 28.9742C16.3228 29.3026 17.0291 29.779 17.6248 30.377C18.226 30.9781 18.6971 31.6777 19.0275 32.4564C19.3668 33.2598 19.5391 34.1158 19.5391 35C19.5391 35.8842 19.3668 36.7402 19.0258 37.5453C18.6978 38.3225 18.2213 39.0283 17.623 39.623V39.623ZM15.6719 35.3691H14.8264C14.7525 35.3691 14.6893 35.4254 14.684 35.4992C14.6172 36.3693 13.8877 37.0566 13 37.0566C12.1123 37.0566 11.3811 36.3693 11.316 35.4992C11.3107 35.4254 11.2475 35.3691 11.1736 35.3691H10.3281C10.3091 35.3691 10.2902 35.373 10.2726 35.3805C10.2551 35.388 10.2393 35.399 10.2261 35.4128C10.213 35.4266 10.2028 35.4429 10.1961 35.4608C10.1895 35.4787 10.1865 35.4977 10.1875 35.5168C10.2648 36.9986 11.4971 38.1816 13 38.1816C14.5029 38.1816 15.7352 36.9986 15.8125 35.5168C15.8135 35.4977 15.8105 35.4787 15.8039 35.4608C15.7972 35.4429 15.787 35.4266 15.7739 35.4128C15.7607 35.399 15.7449 35.388 15.7274 35.3805C15.7098 35.373 15.6909 35.3691 15.6719 35.3691V35.3691Z" fill="#6ECB6E"/>
<path d="M65.0625 33.4004C65.0625 33.6242 65.1514 33.8388 65.3096 33.997C65.4679 34.1552 65.6825 34.2441 65.9062 34.2441C66.13 34.2441 66.3446 34.1552 66.5029 33.997C66.6611 33.8388 66.75 33.6242 66.75 33.4004C66.75 33.1766 66.6611 32.962 66.5029 32.8038C66.3446 32.6455 66.13 32.5566 65.9062 32.5566C65.6825 32.5566 65.4679 32.6455 65.3096 32.8038C65.1514 32.962 65.0625 33.1766 65.0625 33.4004V33.4004ZM71.25 33.4004C71.25 33.6242 71.3389 33.8388 71.4971 33.997C71.6554 34.1552 71.87 34.2441 72.0938 34.2441C72.3175 34.2441 72.5321 34.1552 72.6904 33.997C72.8486 33.8388 72.9375 33.6242 72.9375 33.4004C72.9375 33.1766 72.8486 32.962 72.6904 32.8038C72.5321 32.6455 72.3175 32.5566 72.0938 32.5566C71.87 32.5566 71.6554 32.6455 71.4971 32.8038C71.3389 32.962 71.25 33.1766 71.25 33.4004V33.4004ZM69 27.125C64.6512 27.125 61.125 30.6512 61.125 35C61.125 39.3488 64.6512 42.875 69 42.875C73.3488 42.875 76.875 39.3488 76.875 35C76.875 30.6512 73.3488 27.125 69 27.125ZM73.623 39.623C73.0219 40.2242 72.3223 40.6953 71.5436 41.0258C70.7402 41.3668 69.8842 41.5391 69 41.5391C68.1158 41.5391 67.2598 41.3668 66.4547 41.0258C65.6772 40.6974 64.9709 40.221 64.3752 39.623C63.774 39.0219 63.3029 38.3223 62.9725 37.5436C62.6332 36.7402 62.4609 35.8842 62.4609 35C62.4609 34.1158 62.6332 33.2598 62.9742 32.4547C63.3026 31.6772 63.779 30.9709 64.377 30.3752C64.9781 29.774 65.6777 29.3029 66.4564 28.9725C67.2598 28.6332 68.1158 28.4609 69 28.4609C69.8842 28.4609 70.7402 28.6332 71.5453 28.9742C72.3228 29.3026 73.0291 29.779 73.6248 30.377C74.226 30.9781 74.6971 31.6777 75.0275 32.4564C75.3668 33.2598 75.5391 34.1158 75.5391 35C75.5391 35.8842 75.3668 36.7402 75.0258 37.5453C74.6978 38.3225 74.2213 39.0283 73.623 39.623V39.623ZM69 35.3691C67.4971 35.3691 66.2648 36.5521 66.1875 38.034C66.1865 38.053 66.1895 38.0721 66.1961 38.09C66.2028 38.1078 66.213 38.1242 66.2261 38.138C66.2393 38.1518 66.2551 38.1628 66.2726 38.1703C66.2902 38.1778 66.3091 38.1817 66.3281 38.1816H67.1736C67.2475 38.1816 67.3107 38.1254 67.316 38.0516C67.3828 37.1814 68.1123 36.4941 69 36.4941C69.8877 36.4941 70.6189 37.1814 70.684 38.0516C70.6893 38.1254 70.7525 38.1816 70.8264 38.1816H71.6719C71.6909 38.1817 71.7098 38.1778 71.7274 38.1703C71.7449 38.1628 71.7607 38.1518 71.7739 38.138C71.787 38.1242 71.7972 38.1078 71.8039 38.09C71.8105 38.0721 71.8135 38.053 71.8125 38.034C71.7352 36.5521 70.5029 35.3691 69 35.3691Z" fill="#F790A0"/>
<path d="M37.0625 33.4004C37.0625 33.6242 37.1514 33.8388 37.3096 33.997C37.4679 34.1552 37.6825 34.2441 37.9062 34.2441C38.13 34.2441 38.3446 34.1552 38.5029 33.997C38.6611 33.8388 38.75 33.6242 38.75 33.4004C38.75 33.1766 38.6611 32.962 38.5029 32.8038C38.3446 32.6455 38.13 32.5566 37.9062 32.5566C37.6825 32.5566 37.4679 32.6455 37.3096 32.8038C37.1514 32.962 37.0625 33.1766 37.0625 33.4004V33.4004ZM43.25 33.4004C43.25 33.6242 43.3389 33.8388 43.4971 33.997C43.6554 34.1552 43.87 34.2441 44.0938 34.2441C44.3175 34.2441 44.5321 34.1552 44.6904 33.997C44.8486 33.8388 44.9375 33.6242 44.9375 33.4004C44.9375 33.1766 44.8486 32.962 44.6904 32.8038C44.5321 32.6455 44.3175 32.5566 44.0938 32.5566C43.87 32.5566 43.6554 32.6455 43.4971 32.8038C43.3389 32.962 43.25 33.1766 43.25 33.4004V33.4004ZM41 27.125C36.6512 27.125 33.125 30.6512 33.125 35C33.125 39.3488 36.6512 42.875 41 42.875C45.3488 42.875 48.875 39.3488 48.875 35C48.875 30.6512 45.3488 27.125 41 27.125ZM45.623 39.623C45.0219 40.2242 44.3223 40.6953 43.5436 41.0258C42.7402 41.3668 41.8842 41.5391 41 41.5391C40.1158 41.5391 39.2598 41.3668 38.4547 41.0258C37.6772 40.6974 36.9709 40.221 36.3752 39.623C35.774 39.0219 35.3029 38.3223 34.9725 37.5436C34.6332 36.7402 34.4609 35.8842 34.4609 35C34.4609 34.1158 34.6332 33.2598 34.9742 32.4547C35.3026 31.6772 35.779 30.9709 36.377 30.3752C36.9781 29.774 37.6777 29.3029 38.4564 28.9725C39.2598 28.6332 40.1158 28.4609 41 28.4609C41.8842 28.4609 42.7402 28.6332 43.5453 28.9742C44.3228 29.3026 45.0291 29.779 45.6248 30.377C46.226 30.9781 46.6971 31.6777 47.0275 32.4564C47.3668 33.2598 47.5391 34.1158 47.5391 35C47.5391 35.8842 47.3668 36.7402 47.0258 37.5453C46.6978 38.3225 46.2213 39.0283 45.623 39.623V39.623ZM43.6719 35.9316H38.3281C38.2508 35.9316 38.1875 35.9949 38.1875 36.0723V36.916C38.1875 36.9934 38.2508 37.0566 38.3281 37.0566H43.6719C43.7492 37.0566 43.8125 36.9934 43.8125 36.916V36.0723C43.8125 35.9949 43.7492 35.9316 43.6719 35.9316Z" fill="#ECAB56"/>
</svg>
