<svg width="82" height="68" viewBox="0 0 82 68" fill="none" xmlns="http://www.w3.org/2000/svg">
<rect x="34" y="29" width="48" height="10" rx="2" fill="#FED9FF"/>
<rect x="66" y="30" width="15" height="8" rx="2" fill="#9F0EA1"/>
<path d="M71.1055 35.417V36H68.9639V35.417H71.1055ZM69.1689 31.7344V36H68.4336V31.7344H69.1689ZM74.6418 33.75V33.9844C74.6418 34.3066 74.5998 34.5957 74.5159 34.8516C74.4319 35.1074 74.3118 35.3252 74.1555 35.5049C74.0012 35.6846 73.8157 35.8223 73.5989 35.918C73.3821 36.0117 73.1418 36.0586 72.8782 36.0586C72.6164 36.0586 72.3772 36.0117 72.1604 35.918C71.9455 35.8223 71.759 35.6846 71.6008 35.5049C71.4426 35.3252 71.3196 35.1074 71.2317 34.8516C71.1457 34.5957 71.1028 34.3066 71.1028 33.9844V33.75C71.1028 33.4277 71.1457 33.1396 71.2317 32.8857C71.3176 32.6299 71.4387 32.4121 71.595 32.2324C71.7532 32.0508 71.9397 31.9131 72.1545 31.8193C72.3713 31.7236 72.6106 31.6758 72.8723 31.6758C73.136 31.6758 73.3762 31.7236 73.593 31.8193C73.8098 31.9131 73.9963 32.0508 74.1526 32.2324C74.3088 32.4121 74.4289 32.6299 74.5129 32.8857C74.5989 33.1396 74.6418 33.4277 74.6418 33.75ZM73.9065 33.9844V33.7441C73.9065 33.5059 73.883 33.2959 73.8362 33.1143C73.7912 32.9307 73.7239 32.7773 73.634 32.6543C73.5461 32.5293 73.4377 32.4355 73.3088 32.373C73.1799 32.3086 73.0344 32.2764 72.8723 32.2764C72.7102 32.2764 72.5657 32.3086 72.4387 32.373C72.3118 32.4355 72.2034 32.5293 72.1135 32.6543C72.0256 32.7773 71.9582 32.9307 71.9114 33.1143C71.8645 33.2959 71.8411 33.5059 71.8411 33.7441V33.9844C71.8411 34.2227 71.8645 34.4336 71.9114 34.6172C71.9582 34.8008 72.0266 34.9561 72.1164 35.083C72.2082 35.208 72.3176 35.3027 72.4446 35.3672C72.5715 35.4297 72.7161 35.4609 72.8782 35.4609C73.0422 35.4609 73.1877 35.4297 73.3147 35.3672C73.4416 35.3027 73.5491 35.208 73.637 35.083C73.7248 34.9561 73.7912 34.8008 73.8362 34.6172C73.883 34.4336 73.9065 34.2227 73.9065 33.9844ZM77.6567 34.6113H78.3891C78.3657 34.8906 78.2876 35.1396 78.1548 35.3584C78.022 35.5752 77.8354 35.7461 77.5952 35.8711C77.355 35.9961 77.063 36.0586 76.7192 36.0586C76.4555 36.0586 76.2182 36.0117 76.0073 35.918C75.7964 35.8223 75.6157 35.6875 75.4653 35.5137C75.3149 35.3379 75.1997 35.126 75.1196 34.8779C75.0415 34.6299 75.0024 34.3525 75.0024 34.0459V33.6914C75.0024 33.3848 75.0425 33.1074 75.1225 32.8594C75.2046 32.6113 75.3218 32.3994 75.4741 32.2236C75.6264 32.0459 75.8091 31.9102 76.022 31.8164C76.2368 31.7227 76.478 31.6758 76.7456 31.6758C77.0854 31.6758 77.3725 31.7383 77.6069 31.8633C77.8413 31.9883 78.0229 32.1611 78.1518 32.3818C78.2827 32.6025 78.3628 32.8555 78.3921 33.1406H77.6596C77.6401 32.957 77.5971 32.7998 77.5307 32.6689C77.4663 32.5381 77.3706 32.4385 77.2436 32.3701C77.1167 32.2998 76.9507 32.2646 76.7456 32.2646C76.5776 32.2646 76.4311 32.2959 76.3061 32.3584C76.1811 32.4209 76.0766 32.5127 75.9927 32.6338C75.9087 32.7549 75.8452 32.9043 75.8022 33.082C75.7612 33.2578 75.7407 33.459 75.7407 33.6855V34.0459C75.7407 34.2607 75.7593 34.4561 75.7964 34.6318C75.8354 34.8057 75.894 34.9551 75.9721 35.0801C76.0522 35.2051 76.1538 35.3018 76.2768 35.3701C76.3999 35.4385 76.5473 35.4727 76.7192 35.4727C76.9282 35.4727 77.0971 35.4395 77.2261 35.373C77.3569 35.3066 77.4555 35.21 77.522 35.083C77.5903 34.9541 77.6352 34.7969 77.6567 34.6113Z" fill="white"/>
<path d="M1.75342 30.6016V37H0.650391V30.6016H1.75342ZM4.36377 33.4009V34.2754H1.47217V33.4009H4.36377ZM4.72852 30.6016V31.4805H1.47217V30.6016H4.72852ZM6.54574 30.25V37H5.48227V30.25H6.54574ZM8.99578 36.4814L10.2878 32.2451H11.4216L9.51434 37.7251C9.47039 37.8423 9.41326 37.9697 9.34295 38.1074C9.27264 38.2451 9.18035 38.3755 9.06609 38.4985C8.95477 38.6245 8.81561 38.7256 8.64861 38.8018C8.48162 38.8809 8.27947 38.9204 8.04217 38.9204C7.94842 38.9204 7.8576 38.9116 7.76971 38.894C7.68475 38.8794 7.60418 38.8633 7.52801 38.8457L7.52361 38.0371C7.55291 38.04 7.58807 38.043 7.62908 38.0459C7.67303 38.0488 7.70818 38.0503 7.73455 38.0503C7.91033 38.0503 8.05682 38.0283 8.174 37.9844C8.29119 37.9434 8.38641 37.876 8.45965 37.7822C8.53582 37.6885 8.60027 37.5625 8.65301 37.4043L8.99578 36.4814ZM8.26629 32.2451L9.39568 35.8047L9.58465 36.9209L8.85076 37.1099L7.12371 32.2451H8.26629ZM13.0718 32.2451V37H12.0083V32.2451H13.0718ZM11.938 30.9971C11.938 30.8359 11.9907 30.7026 12.0962 30.5972C12.2046 30.4888 12.354 30.4346 12.5445 30.4346C12.732 30.4346 12.8799 30.4888 12.9883 30.5972C13.0967 30.7026 13.1509 30.8359 13.1509 30.9971C13.1509 31.1553 13.0967 31.2871 12.9883 31.3926C12.8799 31.498 12.732 31.5508 12.5445 31.5508C12.354 31.5508 12.2046 31.498 12.0962 31.3926C11.9907 31.2871 11.938 31.1553 11.938 30.9971ZM15.1922 33.2603V37H14.1332V32.2451H15.1307L15.1922 33.2603ZM15.0033 34.4468L14.6605 34.4424C14.6634 34.1055 14.7103 33.7964 14.8011 33.5151C14.8949 33.2339 15.0238 32.9922 15.1879 32.79C15.3548 32.5879 15.5541 32.4326 15.7855 32.3242C16.017 32.2129 16.2748 32.1572 16.5589 32.1572C16.7875 32.1572 16.994 32.1895 17.1786 32.2539C17.3661 32.3154 17.5257 32.4165 17.6576 32.5571C17.7923 32.6978 17.8949 32.8809 17.9652 33.1064C18.0355 33.3291 18.0707 33.603 18.0707 33.9282V37H17.0072V33.9238C17.0072 33.6953 16.9735 33.5151 16.9061 33.3833C16.8417 33.2485 16.7464 33.1533 16.6205 33.0977C16.4974 33.0391 16.3436 33.0098 16.159 33.0098C15.9774 33.0098 15.8148 33.0479 15.6713 33.124C15.5277 33.2002 15.4061 33.3042 15.3065 33.436C15.2098 33.5679 15.1351 33.7202 15.0824 33.8931C15.0296 34.0659 15.0033 34.2505 15.0033 34.4468ZM22.1071 32.2451H23.0695V36.8682C23.0695 37.2959 22.9787 37.6592 22.7971 37.958C22.6154 38.2568 22.362 38.4839 22.0368 38.6392C21.7116 38.7974 21.3352 38.8765 20.9074 38.8765C20.7258 38.8765 20.5236 38.8501 20.301 38.7974C20.0812 38.7446 19.8674 38.6597 19.6594 38.5425C19.4543 38.4282 19.2829 38.2773 19.1452 38.0898L19.6418 37.4658C19.8117 37.668 19.9992 37.8159 20.2043 37.9097C20.4094 38.0034 20.6247 38.0503 20.8503 38.0503C21.0935 38.0503 21.3 38.0049 21.4699 37.9141C21.6428 37.8262 21.7761 37.6958 21.8698 37.5229C21.9636 37.3501 22.0104 37.1392 22.0104 36.8901V33.3218L22.1071 32.2451ZM18.8771 34.6753V34.583C18.8771 34.2227 18.9211 33.8945 19.009 33.5986C19.0969 33.2998 19.2229 33.0435 19.3869 32.8296C19.551 32.6128 19.7502 32.4473 19.9846 32.333C20.2189 32.2158 20.4841 32.1572 20.78 32.1572C21.0876 32.1572 21.3498 32.2129 21.5666 32.3242C21.7863 32.4355 21.9694 32.5952 22.1159 32.8032C22.2624 33.0083 22.3767 33.2544 22.4587 33.5415C22.5437 33.8257 22.6066 34.1421 22.6477 34.4907V34.7852C22.6096 35.125 22.5451 35.4355 22.4543 35.7168C22.3635 35.998 22.2434 36.2412 22.0939 36.4463C21.9445 36.6514 21.76 36.8096 21.5402 36.9209C21.3234 37.0322 21.0671 37.0879 20.7712 37.0879C20.4812 37.0879 20.2189 37.0278 19.9846 36.9077C19.7531 36.7876 19.5539 36.6191 19.3869 36.4023C19.2229 36.1855 19.0969 35.9307 19.009 35.6377C18.9211 35.3418 18.8771 35.021 18.8771 34.6753ZM19.9362 34.583V34.6753C19.9362 34.8921 19.9567 35.0942 19.9978 35.2817C20.0417 35.4692 20.1076 35.6348 20.1955 35.7783C20.2863 35.9189 20.4006 36.0303 20.5383 36.1123C20.6789 36.1914 20.8444 36.231 21.0349 36.231C21.2839 36.231 21.4875 36.1782 21.6457 36.0728C21.8068 35.9673 21.9299 35.8252 22.0148 35.6465C22.1027 35.4648 22.1643 35.2627 22.1994 35.04V34.2446C22.1818 34.0718 22.1452 33.9106 22.0896 33.7612C22.0368 33.6118 21.965 33.4814 21.8742 33.3701C21.7834 33.2559 21.6691 33.168 21.5314 33.1064C21.3937 33.042 21.2312 33.0098 21.0437 33.0098C20.8532 33.0098 20.6877 33.0508 20.5471 33.1328C20.4064 33.2148 20.2907 33.3276 20.1999 33.4712C20.112 33.6147 20.0461 33.7817 20.0021 33.9722C19.9582 34.1626 19.9362 34.3662 19.9362 34.583ZM28.4091 32.2451V33.0186H25.7284V32.2451H28.4091ZM26.5018 31.0806H27.5609V35.686C27.5609 35.8325 27.5814 35.9453 27.6224 36.0244C27.6664 36.1006 27.7264 36.1519 27.8026 36.1782C27.8788 36.2046 27.9681 36.2178 28.0707 36.2178C28.1439 36.2178 28.2142 36.2134 28.2816 36.2046C28.349 36.1958 28.4032 36.187 28.4442 36.1782L28.4486 36.9868C28.3607 37.0132 28.2582 37.0366 28.141 37.0571C28.0267 37.0776 27.8949 37.0879 27.7455 37.0879C27.5023 37.0879 27.287 37.0454 27.0995 36.9604C26.912 36.8726 26.7655 36.7305 26.66 36.5342C26.5546 36.3379 26.5018 36.0771 26.5018 35.752V31.0806ZM28.8288 34.6753V34.5742C28.8288 34.2314 28.8786 33.9136 28.9782 33.6206C29.0779 33.3247 29.2214 33.0684 29.4089 32.8516C29.5993 32.6318 29.8308 32.4619 30.1032 32.3418C30.3786 32.2188 30.6892 32.1572 31.0349 32.1572C31.3835 32.1572 31.6941 32.2188 31.9665 32.3418C32.2419 32.4619 32.4748 32.6318 32.6653 32.8516C32.8557 33.0684 33.0007 33.3247 33.1003 33.6206C33.1999 33.9136 33.2497 34.2314 33.2497 34.5742V34.6753C33.2497 35.0181 33.1999 35.3359 33.1003 35.6289C33.0007 35.9219 32.8557 36.1782 32.6653 36.3979C32.4748 36.6147 32.2434 36.7847 31.9709 36.9077C31.6985 37.0278 31.3894 37.0879 31.0437 37.0879C30.695 37.0879 30.383 37.0278 30.1076 36.9077C29.8352 36.7847 29.6037 36.6147 29.4133 36.3979C29.2229 36.1782 29.0779 35.9219 28.9782 35.6289C28.8786 35.3359 28.8288 35.0181 28.8288 34.6753ZM29.8879 34.5742V34.6753C29.8879 34.8892 29.9099 35.0913 29.9538 35.2817C29.9978 35.4722 30.0666 35.6392 30.1604 35.7827C30.2541 35.9263 30.3742 36.0391 30.5207 36.1211C30.6672 36.2031 30.8415 36.2441 31.0437 36.2441C31.24 36.2441 31.4099 36.2031 31.5534 36.1211C31.6999 36.0391 31.82 35.9263 31.9138 35.7827C32.0075 35.6392 32.0764 35.4722 32.1203 35.2817C32.1672 35.0913 32.1906 34.8892 32.1906 34.6753V34.5742C32.1906 34.3633 32.1672 34.1641 32.1203 33.9766C32.0764 33.7861 32.0061 33.6177 31.9094 33.4712C31.8156 33.3247 31.6955 33.2104 31.549 33.1284C31.4055 33.0435 31.2341 33.001 31.0349 33.001C30.8357 33.001 30.6628 33.0435 30.5163 33.1284C30.3728 33.2104 30.2541 33.3247 30.1604 33.4712C30.0666 33.6177 29.9978 33.7861 29.9538 33.9766C29.9099 34.1641 29.8879 34.3633 29.8879 34.5742Z" fill="black"/>
<path d="M38.9364 30.6016V37H37.8422V30.6016H38.9364ZM40.9447 30.6016V31.4805H35.8515V30.6016H40.9447ZM43.6848 36.0464V33.7788C43.6848 33.6089 43.654 33.4624 43.5925 33.3394C43.531 33.2163 43.4372 33.1211 43.3113 33.0537C43.1882 32.9863 43.0329 32.9526 42.8454 32.9526C42.6726 32.9526 42.5232 32.9819 42.3972 33.0405C42.2712 33.0991 42.1731 33.1782 42.1028 33.2778C42.0325 33.3774 41.9973 33.4902 41.9973 33.6162H40.9426C40.9426 33.4287 40.988 33.2471 41.0788 33.0713C41.1697 32.8955 41.3015 32.7388 41.4744 32.6011C41.6472 32.4634 41.8537 32.355 42.094 32.2759C42.3342 32.1968 42.6037 32.1572 42.9026 32.1572C43.26 32.1572 43.5764 32.2173 43.8518 32.3374C44.1301 32.4575 44.3484 32.6392 44.5066 32.8823C44.6677 33.1226 44.7483 33.4243 44.7483 33.7876V35.9014C44.7483 36.1182 44.7629 36.313 44.7922 36.4858C44.8245 36.6558 44.8699 36.8037 44.9285 36.9297V37H43.843C43.7932 36.8857 43.7537 36.7407 43.7244 36.5649C43.698 36.3862 43.6848 36.2134 43.6848 36.0464ZM43.8386 34.1084L43.8474 34.7632H43.0871C42.8909 34.7632 42.718 34.7822 42.5686 34.8203C42.4192 34.8555 42.2947 34.9082 42.1951 34.9785C42.0954 35.0488 42.0207 35.1338 41.9709 35.2334C41.9211 35.333 41.8962 35.4458 41.8962 35.5718C41.8962 35.6978 41.9255 35.8135 41.9841 35.9189C42.0427 36.0215 42.1277 36.1021 42.239 36.1606C42.3533 36.2192 42.491 36.2485 42.6521 36.2485C42.8689 36.2485 43.0578 36.2046 43.219 36.1167C43.383 36.0259 43.512 35.916 43.6057 35.7871C43.6995 35.6553 43.7493 35.5308 43.7551 35.4136L44.0979 35.8838C44.0627 36.0039 44.0027 36.1328 43.9177 36.2705C43.8328 36.4082 43.7214 36.54 43.5837 36.666C43.449 36.7891 43.2864 36.8901 43.0959 36.9692C42.9084 37.0483 42.6916 37.0879 42.4455 37.0879C42.135 37.0879 41.8581 37.0264 41.615 36.9033C41.3718 36.7773 41.1814 36.6089 41.0437 36.3979C40.906 36.1841 40.8371 35.9424 40.8371 35.6729C40.8371 35.4209 40.884 35.1982 40.9778 35.0049C41.0745 34.8086 41.2151 34.6445 41.3996 34.5127C41.5871 34.3809 41.8157 34.2812 42.0852 34.2139C42.3547 34.1436 42.6623 34.1084 43.008 34.1084H43.8386ZM46.8995 32.2451V37H45.836V32.2451H46.8995ZM45.7657 30.9971C45.7657 30.8359 45.8184 30.7026 45.9239 30.5972C46.0323 30.4888 46.1817 30.4346 46.3721 30.4346C46.5596 30.4346 46.7076 30.4888 46.816 30.5972C46.9244 30.7026 46.9786 30.8359 46.9786 30.9971C46.9786 31.1553 46.9244 31.2871 46.816 31.3926C46.7076 31.498 46.5596 31.5508 46.3721 31.5508C46.1817 31.5508 46.0323 31.498 45.9239 31.3926C45.8184 31.2871 45.7657 31.1553 45.7657 30.9971ZM49.2616 35.9453L50.3603 32.2451H51.037L50.8525 33.3525L49.745 37H49.1386L49.2616 35.9453ZM48.6156 32.2451L49.4726 35.9629L49.5429 37H48.8661L47.5785 32.2451H48.6156ZM52.0654 35.9189L52.8959 32.2451H53.9286L52.6454 37H51.9687L52.0654 35.9189ZM51.1513 32.2451L52.2367 35.9014L52.373 37H51.7665L50.6459 33.3481L50.4613 32.2451H51.1513ZM57.24 36.0464V33.7788C57.24 33.6089 57.2092 33.4624 57.1477 33.3394C57.0862 33.2163 56.9924 33.1211 56.8665 33.0537C56.7434 32.9863 56.5881 32.9526 56.4006 32.9526C56.2278 32.9526 56.0784 32.9819 55.9524 33.0405C55.8264 33.0991 55.7283 33.1782 55.658 33.2778C55.5877 33.3774 55.5525 33.4902 55.5525 33.6162H54.4978C54.4978 33.4287 54.5432 33.2471 54.634 33.0713C54.7249 32.8955 54.8567 32.7388 55.0296 32.6011C55.2024 32.4634 55.4089 32.355 55.6492 32.2759C55.8894 32.1968 56.1589 32.1572 56.4578 32.1572C56.8152 32.1572 57.1316 32.2173 57.407 32.3374C57.6853 32.4575 57.9036 32.6392 58.0618 32.8823C58.2229 33.1226 58.3035 33.4243 58.3035 33.7876V35.9014C58.3035 36.1182 58.3181 36.313 58.3474 36.4858C58.3797 36.6558 58.4251 36.8037 58.4837 36.9297V37H57.3982C57.3484 36.8857 57.3088 36.7407 57.2796 36.5649C57.2532 36.3862 57.24 36.2134 57.24 36.0464ZM57.3938 34.1084L57.4026 34.7632H56.6423C56.4461 34.7632 56.2732 34.7822 56.1238 34.8203C55.9744 34.8555 55.8499 34.9082 55.7503 34.9785C55.6506 35.0488 55.5759 35.1338 55.5261 35.2334C55.4763 35.333 55.4514 35.4458 55.4514 35.5718C55.4514 35.6978 55.4807 35.8135 55.5393 35.9189C55.5979 36.0215 55.6829 36.1021 55.7942 36.1606C55.9085 36.2192 56.0462 36.2485 56.2073 36.2485C56.4241 36.2485 56.613 36.2046 56.7742 36.1167C56.9382 36.0259 57.0672 35.916 57.1609 35.7871C57.2547 35.6553 57.3045 35.5308 57.3103 35.4136L57.6531 35.8838C57.6179 36.0039 57.5579 36.1328 57.4729 36.2705C57.388 36.4082 57.2766 36.54 57.1389 36.666C57.0042 36.7891 56.8416 36.8901 56.6511 36.9692C56.4636 37.0483 56.2468 37.0879 56.0007 37.0879C55.6902 37.0879 55.4133 37.0264 55.1702 36.9033C54.927 36.7773 54.7366 36.6089 54.5989 36.3979C54.4612 36.1841 54.3923 35.9424 54.3923 35.6729C54.3923 35.4209 54.4392 35.1982 54.533 35.0049C54.6297 34.8086 54.7703 34.6445 54.9548 34.5127C55.1423 34.3809 55.3709 34.2812 55.6404 34.2139C55.9099 34.1436 56.2175 34.1084 56.5632 34.1084H57.3938ZM60.3712 33.2603V37H59.3121V32.2451H60.3097L60.3712 33.2603ZM60.1822 34.4468L59.8395 34.4424C59.8424 34.1055 59.8893 33.7964 59.9801 33.5151C60.0738 33.2339 60.2027 32.9922 60.3668 32.79C60.5338 32.5879 60.733 32.4326 60.9645 32.3242C61.1959 32.2129 61.4537 32.1572 61.7379 32.1572C61.9664 32.1572 62.173 32.1895 62.3575 32.2539C62.545 32.3154 62.7047 32.4165 62.8365 32.5571C62.9713 32.6978 63.0738 32.8809 63.1441 33.1064C63.2145 33.3291 63.2496 33.603 63.2496 33.9282V37H62.1861V33.9238C62.1861 33.6953 62.1524 33.5151 62.0851 33.3833C62.0206 33.2485 61.9254 33.1533 61.7994 33.0977C61.6764 33.0391 61.5226 33.0098 61.338 33.0098C61.1563 33.0098 60.9938 33.0479 60.8502 33.124C60.7066 33.2002 60.5851 33.3042 60.4855 33.436C60.3888 33.5679 60.3141 33.7202 60.2613 33.8931C60.2086 34.0659 60.1822 34.2505 60.1822 34.4468Z" fill="#9F0EA2"/>
</svg>
