<svg width="82" height="68" viewBox="0 0 82 68" fill="none" xmlns="http://www.w3.org/2000/svg">
<rect x="16" y="52" width="58" height="4" fill="#B8EFB8"/>
<path d="M8.79297 51.0703L7.09375 56H6.06641L8.20703 50.3125H8.86328L8.79297 51.0703ZM10.2148 56L8.51172 51.0703L8.4375 50.3125H9.09766L11.2461 56H10.2148ZM10.1328 53.8906V54.668H7.03906V53.8906H10.1328ZM11.8008 55.5312C11.8008 55.3854 11.8503 55.263 11.9492 55.1641C12.0482 55.0625 12.1823 55.0117 12.3516 55.0117C12.5234 55.0117 12.6576 55.0625 12.7539 55.1641C12.8529 55.263 12.9023 55.3854 12.9023 55.5312C12.9023 55.6771 12.8529 55.7995 12.7539 55.8984C12.6576 55.9974 12.5234 56.0469 12.3516 56.0469C12.1823 56.0469 12.0482 55.9974 11.9492 55.8984C11.8503 55.7995 11.8008 55.6771 11.8008 55.5312ZM11.8047 52.2031C11.8047 52.0573 11.8542 51.9349 11.9531 51.8359C12.0521 51.7344 12.1862 51.6836 12.3555 51.6836C12.5273 51.6836 12.6615 51.7344 12.7578 51.8359C12.8568 51.9349 12.9062 52.0573 12.9062 52.2031C12.9062 52.349 12.8568 52.4714 12.7578 52.5703C12.6615 52.6693 12.5273 52.7188 12.3555 52.7188C12.1862 52.7188 12.0521 52.6693 11.9531 52.5703C11.8542 52.4714 11.8047 52.349 11.8047 52.2031Z" fill="#333333"/>
<rect x="16" y="40" width="40" height="4" fill="#6780FF"/>
<path d="M9.58984 43.2422L11.0859 44.4297L10.4492 44.9883L8.98047 43.8125L9.58984 43.2422ZM11.0977 41V41.3125C11.0977 41.7422 11.0417 42.1276 10.9297 42.4688C10.8177 42.8099 10.6576 43.1003 10.4492 43.3398C10.2409 43.5794 9.99219 43.763 9.70312 43.8906C9.41406 44.0156 9.09375 44.0781 8.74219 44.0781C8.39323 44.0781 8.07422 44.0156 7.78516 43.8906C7.4987 43.763 7.25 43.5794 7.03906 43.3398C6.82812 43.1003 6.66406 42.8099 6.54688 42.4688C6.43229 42.1276 6.375 41.7422 6.375 41.3125V41C6.375 40.5703 6.43229 40.1862 6.54688 39.8477C6.66146 39.5065 6.82292 39.2161 7.03125 38.9766C7.24219 38.7344 7.49089 38.5508 7.77734 38.4258C8.06641 38.2982 8.38542 38.2344 8.73438 38.2344C9.08594 38.2344 9.40625 38.2982 9.69531 38.4258C9.98698 38.5508 10.237 38.7344 10.4453 38.9766C10.6536 39.2161 10.8138 39.5065 10.9258 39.8477C11.0404 40.1862 11.0977 40.5703 11.0977 41ZM10.1133 41.3125V40.9922C10.1133 40.6745 10.082 40.3945 10.0195 40.1523C9.95964 39.9076 9.86979 39.7031 9.75 39.5391C9.63281 39.3724 9.48828 39.2474 9.31641 39.1641C9.14714 39.0781 8.95312 39.0352 8.73438 39.0352C8.52083 39.0352 8.32943 39.0781 8.16016 39.1641C7.99089 39.2474 7.84635 39.3724 7.72656 39.5391C7.60677 39.7031 7.51562 39.9076 7.45312 40.1523C7.39062 40.3945 7.35938 40.6745 7.35938 40.9922V41.3125C7.35938 41.6302 7.39062 41.9115 7.45312 42.1562C7.51562 42.401 7.60677 42.6081 7.72656 42.7773C7.84896 42.944 7.99479 43.0703 8.16406 43.1562C8.33594 43.2396 8.52865 43.2812 8.74219 43.2812C8.96094 43.2812 9.15495 43.2396 9.32422 43.1562C9.49349 43.0703 9.63672 42.944 9.75391 42.7773C9.87109 42.6081 9.95964 42.401 10.0195 42.1562C10.082 41.9115 10.1133 41.6302 10.1133 41.3125ZM12.0117 43.5312C12.0117 43.3854 12.0612 43.263 12.1602 43.1641C12.2591 43.0625 12.3932 43.0117 12.5625 43.0117C12.7344 43.0117 12.8685 43.0625 12.9648 43.1641C13.0638 43.263 13.1133 43.3854 13.1133 43.5312C13.1133 43.6771 13.0638 43.7995 12.9648 43.8984C12.8685 43.9974 12.7344 44.0469 12.5625 44.0469C12.3932 44.0469 12.2591 43.9974 12.1602 43.8984C12.0612 43.7995 12.0117 43.6771 12.0117 43.5312ZM12.0156 40.2031C12.0156 40.0573 12.0651 39.9349 12.1641 39.8359C12.263 39.7344 12.3971 39.6836 12.5664 39.6836C12.7383 39.6836 12.8724 39.7344 12.9688 39.8359C13.0677 39.9349 13.1172 40.0573 13.1172 40.2031C13.1172 40.349 13.0677 40.4714 12.9688 40.5703C12.8724 40.6693 12.7383 40.7188 12.5664 40.7188C12.3971 40.7188 12.263 40.6693 12.1641 40.5703C12.0651 40.4714 12.0156 40.349 12.0156 40.2031Z" fill="#333333"/>
<rect x="16.5" y="9.5" width="17" height="21" fill="white" stroke="#D0D0D0"/>
<rect x="19" y="17" width="12" height="1" fill="#D0D0D0"/>
<rect x="19" y="14" width="4" height="1" fill="#D0D0D0"/>
<rect x="19" y="20" width="12" height="1" fill="#D0D0D0"/>
<rect x="19" y="23" width="9" height="1" fill="#D0D0D0"/>
</svg>
