<svg width="82" height="68" viewBox="0 0 82 68" fill="none" xmlns="http://www.w3.org/2000/svg">
<rect x="3" y="34" width="76" height="4" fill="#B2BFF3"/>
<rect x="3" y="42" width="72" height="4" fill="#B2BFF3"/>
<path d="M7.75244 25.625V25.9766C7.75244 26.46 7.68945 26.8936 7.56348 27.2773C7.4375 27.6611 7.25732 27.9878 7.02295 28.2573C6.7915 28.5269 6.51318 28.7334 6.18799 28.877C5.86279 29.0176 5.50244 29.0879 5.10693 29.0879C4.71436 29.0879 4.35547 29.0176 4.03027 28.877C3.70801 28.7334 3.42822 28.5269 3.19092 28.2573C2.95361 27.9878 2.76904 27.6611 2.63721 27.2773C2.5083 26.8936 2.44385 26.46 2.44385 25.9766V25.625C2.44385 25.1416 2.5083 24.7095 2.63721 24.3286C2.76611 23.9448 2.94775 23.6182 3.18213 23.3486C3.41943 23.0762 3.69922 22.8696 4.02148 22.729C4.34668 22.5854 4.70557 22.5137 5.09814 22.5137C5.49365 22.5137 5.854 22.5854 6.1792 22.729C6.50439 22.8696 6.78418 23.0762 7.01855 23.3486C7.25293 23.6182 7.43311 23.9448 7.55908 24.3286C7.68799 24.7095 7.75244 25.1416 7.75244 25.625ZM6.64941 25.9766V25.6162C6.64941 25.2588 6.61426 24.9438 6.54395 24.6714C6.47656 24.396 6.37549 24.166 6.24072 23.9814C6.10889 23.7939 5.94629 23.6533 5.75293 23.5596C5.55957 23.4629 5.34131 23.4146 5.09814 23.4146C4.85498 23.4146 4.63818 23.4629 4.44775 23.5596C4.25732 23.6533 4.09473 23.7939 3.95996 23.9814C3.82812 24.166 3.72705 24.396 3.65674 24.6714C3.58643 24.9438 3.55127 25.2588 3.55127 25.6162V25.9766C3.55127 26.334 3.58643 26.6504 3.65674 26.9258C3.72705 27.2012 3.82959 27.4341 3.96436 27.6245C4.10205 27.812 4.26611 27.9541 4.45654 28.0508C4.64697 28.1445 4.86377 28.1914 5.10693 28.1914C5.35303 28.1914 5.57129 28.1445 5.76172 28.0508C5.95215 27.9541 6.11328 27.812 6.24512 27.6245C6.37695 27.4341 6.47656 27.2012 6.54395 26.9258C6.61426 26.6504 6.64941 26.334 6.64941 25.9766ZM9.80029 25.2603V29H8.74121V24.2451H9.73877L9.80029 25.2603ZM9.61133 26.4468L9.26855 26.4424C9.27148 26.1055 9.31836 25.7964 9.40918 25.5151C9.50293 25.2339 9.63184 24.9922 9.7959 24.79C9.96289 24.5879 10.1621 24.4326 10.3936 24.3242C10.625 24.2129 10.8828 24.1572 11.167 24.1572C11.3955 24.1572 11.6021 24.1895 11.7866 24.2539C11.9741 24.3154 12.1338 24.4165 12.2656 24.5571C12.4004 24.6978 12.5029 24.8809 12.5732 25.1064C12.6436 25.3291 12.6787 25.603 12.6787 25.9282V29H11.6152V25.9238C11.6152 25.6953 11.5815 25.5151 11.5142 25.3833C11.4497 25.2485 11.3545 25.1533 11.2285 25.0977C11.1055 25.0391 10.9517 25.0098 10.7671 25.0098C10.5854 25.0098 10.4229 25.0479 10.2793 25.124C10.1357 25.2002 10.0142 25.3042 9.91455 25.436C9.81787 25.5679 9.74316 25.7202 9.69043 25.8931C9.6377 26.0659 9.61133 26.2505 9.61133 26.4468ZM15.7021 28.2441C15.875 28.2441 16.0303 28.2104 16.168 28.1431C16.3086 28.0728 16.4214 27.9761 16.5063 27.853C16.5942 27.73 16.6426 27.5879 16.6514 27.4268H17.6489C17.6431 27.7344 17.5522 28.0142 17.3765 28.2661C17.2007 28.5181 16.9678 28.7188 16.6777 28.8682C16.3877 29.0146 16.0669 29.0879 15.7153 29.0879C15.3521 29.0879 15.0356 29.0264 14.7661 28.9033C14.4966 28.7773 14.2725 28.6045 14.0938 28.3848C13.915 28.165 13.7803 27.9116 13.6895 27.6245C13.6016 27.3374 13.5576 27.0298 13.5576 26.7017V26.5479C13.5576 26.2197 13.6016 25.9121 13.6895 25.625C13.7803 25.335 13.915 25.0801 14.0938 24.8604C14.2725 24.6406 14.4966 24.4692 14.7661 24.3462C15.0356 24.2202 15.3506 24.1572 15.7109 24.1572C16.0918 24.1572 16.4258 24.2334 16.7129 24.3857C17 24.5352 17.2256 24.7446 17.3896 25.0142C17.5566 25.2808 17.6431 25.5913 17.6489 25.9458H16.6514C16.6426 25.77 16.5986 25.6118 16.5195 25.4712C16.4434 25.3276 16.335 25.2134 16.1943 25.1284C16.0566 25.0435 15.8911 25.001 15.6978 25.001C15.4839 25.001 15.3066 25.0449 15.166 25.1328C15.0254 25.2178 14.9155 25.335 14.8364 25.4844C14.7573 25.6309 14.7002 25.7964 14.665 25.981C14.6328 26.1626 14.6167 26.3516 14.6167 26.5479V26.7017C14.6167 26.8979 14.6328 27.0884 14.665 27.2729C14.6973 27.4575 14.7529 27.623 14.832 27.7695C14.9141 27.9131 15.0254 28.0288 15.166 28.1167C15.3066 28.2017 15.4854 28.2441 15.7021 28.2441ZM20.5581 29.0879C20.2065 29.0879 19.8887 29.0308 19.6045 28.9165C19.3232 28.7993 19.083 28.6367 18.8838 28.4287C18.6875 28.2207 18.5366 27.9761 18.4312 27.6948C18.3257 27.4136 18.2729 27.1104 18.2729 26.7852V26.6094C18.2729 26.2373 18.3271 25.9004 18.4355 25.5986C18.5439 25.2969 18.6948 25.0391 18.8882 24.8252C19.0815 24.6084 19.3101 24.4429 19.5737 24.3286C19.8374 24.2144 20.123 24.1572 20.4307 24.1572C20.7705 24.1572 21.0679 24.2144 21.3228 24.3286C21.5776 24.4429 21.7886 24.604 21.9556 24.812C22.1255 25.0171 22.2515 25.2617 22.3335 25.5459C22.4185 25.8301 22.4609 26.1436 22.4609 26.4863V26.939H18.7871V26.1787H21.415V26.0952C21.4092 25.9048 21.3711 25.7261 21.3008 25.5591C21.2334 25.3921 21.1294 25.2573 20.9888 25.1548C20.8481 25.0522 20.6606 25.001 20.4263 25.001C20.2505 25.001 20.0938 25.0391 19.9561 25.1152C19.8213 25.1885 19.7085 25.2954 19.6177 25.436C19.5269 25.5767 19.4565 25.7466 19.4067 25.9458C19.3599 26.1421 19.3364 26.3633 19.3364 26.6094V26.7852C19.3364 26.9932 19.3643 27.1865 19.4199 27.3652C19.4785 27.541 19.5635 27.6948 19.6748 27.8267C19.7861 27.9585 19.9209 28.0625 20.0791 28.1387C20.2373 28.2119 20.4175 28.2485 20.6196 28.2485C20.8745 28.2485 21.1016 28.1973 21.3008 28.0947C21.5 27.9922 21.6729 27.8472 21.8193 27.6597L22.3774 28.2002C22.2749 28.3496 22.1416 28.4932 21.9775 28.6309C21.8135 28.7656 21.6128 28.8755 21.3755 28.9604C21.1411 29.0454 20.8687 29.0879 20.5581 29.0879ZM28.3892 27.8794V24.2451H29.4526V29H28.4507L28.3892 27.8794ZM28.5386 26.8906L28.8945 26.8818C28.8945 27.2012 28.8594 27.4956 28.7891 27.7651C28.7188 28.0317 28.6104 28.2646 28.4639 28.4639C28.3174 28.6602 28.1299 28.814 27.9014 28.9253C27.6729 29.0337 27.3989 29.0879 27.0796 29.0879C26.8481 29.0879 26.6357 29.0542 26.4424 28.9868C26.249 28.9194 26.082 28.8154 25.9414 28.6748C25.8037 28.5342 25.6968 28.3511 25.6206 28.1255C25.5444 27.8999 25.5063 27.6304 25.5063 27.3169V24.2451H26.5654V27.3257C26.5654 27.4985 26.5859 27.6436 26.627 27.7607C26.668 27.875 26.7236 27.9673 26.7939 28.0376C26.8643 28.1079 26.9463 28.1577 27.04 28.187C27.1338 28.2163 27.2334 28.231 27.3389 28.231C27.6406 28.231 27.8779 28.1724 28.0508 28.0552C28.2266 27.9351 28.3511 27.7739 28.4243 27.5718C28.5005 27.3696 28.5386 27.1426 28.5386 26.8906ZM31.6016 25.1592V30.8281H30.5425V24.2451H31.5181L31.6016 25.1592ZM34.6997 26.5786V26.6709C34.6997 27.0166 34.6587 27.3374 34.5767 27.6333C34.4976 27.9263 34.3789 28.1826 34.2207 28.4023C34.0654 28.6191 33.8735 28.7876 33.645 28.9077C33.4165 29.0278 33.1528 29.0879 32.854 29.0879C32.5581 29.0879 32.2988 29.0337 32.0762 28.9253C31.8564 28.814 31.6704 28.6572 31.5181 28.4551C31.3657 28.2529 31.2427 28.0156 31.1489 27.7432C31.0581 27.4678 30.9937 27.166 30.9556 26.8379V26.4819C30.9937 26.1333 31.0581 25.8169 31.1489 25.5327C31.2427 25.2485 31.3657 25.0039 31.5181 24.7988C31.6704 24.5938 31.8564 24.4355 32.0762 24.3242C32.2959 24.2129 32.5522 24.1572 32.8452 24.1572C33.144 24.1572 33.4092 24.2158 33.6406 24.333C33.8721 24.4473 34.0669 24.6113 34.2251 24.8252C34.3833 25.0361 34.502 25.291 34.5811 25.5898C34.6602 25.8857 34.6997 26.2153 34.6997 26.5786ZM33.6406 26.6709V26.5786C33.6406 26.3589 33.6201 26.1553 33.5791 25.9678C33.5381 25.7773 33.4736 25.6104 33.3857 25.4668C33.2979 25.3232 33.1851 25.2119 33.0474 25.1328C32.9126 25.0508 32.75 25.0098 32.5596 25.0098C32.3721 25.0098 32.2109 25.042 32.0762 25.1064C31.9414 25.168 31.8286 25.2544 31.7378 25.3657C31.647 25.4771 31.5767 25.6074 31.5269 25.7568C31.4771 25.9033 31.4419 26.063 31.4214 26.2358V27.0884C31.4565 27.2993 31.5166 27.4927 31.6016 27.6685C31.6865 27.8442 31.8066 27.9849 31.9619 28.0903C32.1201 28.1929 32.3223 28.2441 32.5684 28.2441C32.7588 28.2441 32.9214 28.2031 33.0562 28.1211C33.1909 28.0391 33.3008 27.9263 33.3857 27.7827C33.4736 27.6362 33.5381 27.4678 33.5791 27.2773C33.6201 27.0869 33.6406 26.8848 33.6406 26.6709ZM35.3984 26.6753V26.5742C35.3984 26.2314 35.4482 25.9136 35.5479 25.6206C35.6475 25.3247 35.791 25.0684 35.9785 24.8516C36.1689 24.6318 36.4004 24.4619 36.6729 24.3418C36.9482 24.2188 37.2588 24.1572 37.6045 24.1572C37.9531 24.1572 38.2637 24.2188 38.5361 24.3418C38.8115 24.4619 39.0444 24.6318 39.2349 24.8516C39.4253 25.0684 39.5703 25.3247 39.6699 25.6206C39.7695 25.9136 39.8193 26.2314 39.8193 26.5742V26.6753C39.8193 27.0181 39.7695 27.3359 39.6699 27.6289C39.5703 27.9219 39.4253 28.1782 39.2349 28.3979C39.0444 28.6147 38.813 28.7847 38.5405 28.9077C38.2681 29.0278 37.959 29.0879 37.6133 29.0879C37.2646 29.0879 36.9526 29.0278 36.6772 28.9077C36.4048 28.7847 36.1733 28.6147 35.9829 28.3979C35.7925 28.1782 35.6475 27.9219 35.5479 27.6289C35.4482 27.3359 35.3984 27.0181 35.3984 26.6753ZM36.4575 26.5742V26.6753C36.4575 26.8892 36.4795 27.0913 36.5234 27.2817C36.5674 27.4722 36.6362 27.6392 36.73 27.7827C36.8237 27.9263 36.9438 28.0391 37.0903 28.1211C37.2368 28.2031 37.4111 28.2441 37.6133 28.2441C37.8096 28.2441 37.9795 28.2031 38.123 28.1211C38.2695 28.0391 38.3896 27.9263 38.4834 27.7827C38.5771 27.6392 38.646 27.4722 38.6899 27.2817C38.7368 27.0913 38.7603 26.8892 38.7603 26.6753V26.5742C38.7603 26.3633 38.7368 26.1641 38.6899 25.9766C38.646 25.7861 38.5757 25.6177 38.479 25.4712C38.3853 25.3247 38.2651 25.2104 38.1187 25.1284C37.9751 25.0435 37.8037 25.001 37.6045 25.001C37.4053 25.001 37.2324 25.0435 37.0859 25.1284C36.9424 25.2104 36.8237 25.3247 36.73 25.4712C36.6362 25.6177 36.5674 25.7861 36.5234 25.9766C36.4795 26.1641 36.4575 26.3633 36.4575 26.5742ZM41.7573 25.2603V29H40.6982V24.2451H41.6958L41.7573 25.2603ZM41.5684 26.4468L41.2256 26.4424C41.2285 26.1055 41.2754 25.7964 41.3662 25.5151C41.46 25.2339 41.5889 24.9922 41.7529 24.79C41.9199 24.5879 42.1191 24.4326 42.3506 24.3242C42.582 24.2129 42.8398 24.1572 43.124 24.1572C43.3525 24.1572 43.5591 24.1895 43.7437 24.2539C43.9312 24.3154 44.0908 24.4165 44.2227 24.5571C44.3574 24.6978 44.46 24.8809 44.5303 25.1064C44.6006 25.3291 44.6357 25.603 44.6357 25.9282V29H43.5723V25.9238C43.5723 25.6953 43.5386 25.5151 43.4712 25.3833C43.4067 25.2485 43.3115 25.1533 43.1855 25.0977C43.0625 25.0391 42.9087 25.0098 42.7241 25.0098C42.5425 25.0098 42.3799 25.0479 42.2363 25.124C42.0928 25.2002 41.9712 25.3042 41.8716 25.436C41.7749 25.5679 41.7002 25.7202 41.6475 25.8931C41.5947 26.0659 41.5684 26.2505 41.5684 26.4468ZM50.6387 28.0464V25.7788C50.6387 25.6089 50.6079 25.4624 50.5464 25.3394C50.4849 25.2163 50.3911 25.1211 50.2651 25.0537C50.1421 24.9863 49.9868 24.9526 49.7993 24.9526C49.6265 24.9526 49.4771 24.9819 49.3511 25.0405C49.2251 25.0991 49.127 25.1782 49.0566 25.2778C48.9863 25.3774 48.9512 25.4902 48.9512 25.6162H47.8965C47.8965 25.4287 47.9419 25.2471 48.0327 25.0713C48.1235 24.8955 48.2554 24.7388 48.4282 24.6011C48.6011 24.4634 48.8076 24.355 49.0479 24.2759C49.2881 24.1968 49.5576 24.1572 49.8564 24.1572C50.2139 24.1572 50.5303 24.2173 50.8057 24.3374C51.084 24.4575 51.3022 24.6392 51.4604 24.8823C51.6216 25.1226 51.7021 25.4243 51.7021 25.7876V27.9014C51.7021 28.1182 51.7168 28.313 51.7461 28.4858C51.7783 28.6558 51.8237 28.8037 51.8823 28.9297V29H50.7969C50.7471 28.8857 50.7075 28.7407 50.6782 28.5649C50.6519 28.3862 50.6387 28.2134 50.6387 28.0464ZM50.7925 26.1084L50.8013 26.7632H50.041C49.8447 26.7632 49.6719 26.7822 49.5225 26.8203C49.373 26.8555 49.2485 26.9082 49.1489 26.9785C49.0493 27.0488 48.9746 27.1338 48.9248 27.2334C48.875 27.333 48.8501 27.4458 48.8501 27.5718C48.8501 27.6978 48.8794 27.8135 48.938 27.9189C48.9966 28.0215 49.0815 28.1021 49.1929 28.1606C49.3071 28.2192 49.4448 28.2485 49.606 28.2485C49.8228 28.2485 50.0117 28.2046 50.1729 28.1167C50.3369 28.0259 50.4658 27.916 50.5596 27.7871C50.6533 27.6553 50.7031 27.5308 50.709 27.4136L51.0518 27.8838C51.0166 28.0039 50.9565 28.1328 50.8716 28.2705C50.7866 28.4082 50.6753 28.54 50.5376 28.666C50.4028 28.7891 50.2402 28.8901 50.0498 28.9692C49.8623 29.0483 49.6455 29.0879 49.3994 29.0879C49.0889 29.0879 48.812 29.0264 48.5688 28.9033C48.3257 28.7773 48.1353 28.6089 47.9976 28.3979C47.8599 28.1841 47.791 27.9424 47.791 27.6729C47.791 27.4209 47.8379 27.1982 47.9316 27.0049C48.0283 26.8086 48.1689 26.6445 48.3535 26.5127C48.541 26.3809 48.7695 26.2812 49.0391 26.2139C49.3086 26.1436 49.6162 26.1084 49.9619 26.1084H50.7925ZM57.2305 24.2451V25.0186H54.5498V24.2451H57.2305ZM55.3232 23.0806H56.3823V27.686C56.3823 27.8325 56.4028 27.9453 56.4438 28.0244C56.4878 28.1006 56.5479 28.1519 56.624 28.1782C56.7002 28.2046 56.7896 28.2178 56.8921 28.2178C56.9653 28.2178 57.0356 28.2134 57.103 28.2046C57.1704 28.1958 57.2246 28.187 57.2656 28.1782L57.27 28.9868C57.1821 29.0132 57.0796 29.0366 56.9624 29.0571C56.8481 29.0776 56.7163 29.0879 56.5669 29.0879C56.3237 29.0879 56.1084 29.0454 55.9209 28.9604C55.7334 28.8726 55.5869 28.7305 55.4814 28.5342C55.376 28.3379 55.3232 28.0771 55.3232 27.752V23.0806ZM59.1816 24.2451V29H58.1182V24.2451H59.1816ZM58.0479 22.9971C58.0479 22.8359 58.1006 22.7026 58.2061 22.5972C58.3145 22.4888 58.4639 22.4346 58.6543 22.4346C58.8418 22.4346 58.9897 22.4888 59.0981 22.5972C59.2065 22.7026 59.2607 22.8359 59.2607 22.9971C59.2607 23.1553 59.2065 23.2871 59.0981 23.3926C58.9897 23.498 58.8418 23.5508 58.6543 23.5508C58.4639 23.5508 58.3145 23.498 58.2061 23.3926C58.1006 23.2871 58.0479 23.1553 58.0479 22.9971ZM61.4009 25.2119V29H60.3418V24.2451H61.3394L61.4009 25.2119ZM61.2295 26.4468L60.8691 26.4424C60.8691 26.1143 60.9102 25.811 60.9922 25.5327C61.0742 25.2544 61.1943 25.0127 61.3525 24.8076C61.5107 24.5996 61.707 24.4399 61.9414 24.3286C62.1787 24.2144 62.4526 24.1572 62.7632 24.1572C62.98 24.1572 63.1777 24.1895 63.3564 24.2539C63.5381 24.3154 63.6948 24.4136 63.8267 24.5483C63.9614 24.6831 64.064 24.856 64.1343 25.0669C64.2075 25.2778 64.2441 25.5327 64.2441 25.8315V29H63.1851V25.9238C63.1851 25.6924 63.1499 25.5107 63.0796 25.3789C63.0122 25.2471 62.9141 25.1533 62.7852 25.0977C62.6592 25.0391 62.5083 25.0098 62.3325 25.0098C62.1333 25.0098 61.9634 25.0479 61.8228 25.124C61.6851 25.2002 61.5723 25.3042 61.4844 25.436C61.3965 25.5679 61.332 25.7202 61.291 25.8931C61.25 26.0659 61.2295 26.2505 61.2295 26.4468ZM64.1782 26.1655L63.6816 26.2754C63.6816 25.9883 63.7212 25.7173 63.8003 25.4624C63.8823 25.2046 64.001 24.979 64.1562 24.7856C64.3145 24.5894 64.5093 24.4355 64.7407 24.3242C64.9722 24.2129 65.2373 24.1572 65.5361 24.1572C65.7793 24.1572 65.9961 24.1909 66.1865 24.2583C66.3799 24.3228 66.5439 24.4253 66.6787 24.5659C66.8135 24.7065 66.916 24.8896 66.9863 25.1152C67.0566 25.3379 67.0918 25.6074 67.0918 25.9238V29H66.0283V25.9194C66.0283 25.6792 65.9932 25.4932 65.9229 25.3613C65.8555 25.2295 65.7588 25.1387 65.6328 25.0889C65.5068 25.0361 65.356 25.0098 65.1802 25.0098C65.0161 25.0098 64.8711 25.0405 64.7451 25.1021C64.6221 25.1606 64.5181 25.2441 64.4331 25.3525C64.3481 25.458 64.2837 25.5796 64.2397 25.7173C64.1987 25.855 64.1782 26.0044 64.1782 26.1655ZM70.2778 29.0879C69.9263 29.0879 69.6084 29.0308 69.3242 28.9165C69.043 28.7993 68.8027 28.6367 68.6035 28.4287C68.4072 28.2207 68.2563 27.9761 68.1509 27.6948C68.0454 27.4136 67.9927 27.1104 67.9927 26.7852V26.6094C67.9927 26.2373 68.0469 25.9004 68.1553 25.5986C68.2637 25.2969 68.4146 25.0391 68.6079 24.8252C68.8013 24.6084 69.0298 24.4429 69.2935 24.3286C69.5571 24.2144 69.8428 24.1572 70.1504 24.1572C70.4902 24.1572 70.7876 24.2144 71.0425 24.3286C71.2974 24.4429 71.5083 24.604 71.6753 24.812C71.8452 25.0171 71.9712 25.2617 72.0532 25.5459C72.1382 25.8301 72.1807 26.1436 72.1807 26.4863V26.939H68.5068V26.1787H71.1348V26.0952C71.1289 25.9048 71.0908 25.7261 71.0205 25.5591C70.9531 25.3921 70.8491 25.2573 70.7085 25.1548C70.5679 25.0522 70.3804 25.001 70.146 25.001C69.9702 25.001 69.8135 25.0391 69.6758 25.1152C69.541 25.1885 69.4282 25.2954 69.3374 25.436C69.2466 25.5767 69.1763 25.7466 69.1265 25.9458C69.0796 26.1421 69.0562 26.3633 69.0562 26.6094V26.7852C69.0562 26.9932 69.084 27.1865 69.1396 27.3652C69.1982 27.541 69.2832 27.6948 69.3945 27.8267C69.5059 27.9585 69.6406 28.0625 69.7988 28.1387C69.957 28.2119 70.1372 28.2485 70.3394 28.2485C70.5942 28.2485 70.8213 28.1973 71.0205 28.0947C71.2197 27.9922 71.3926 27.8472 71.5391 27.6597L72.0972 28.2002C71.9946 28.3496 71.8613 28.4932 71.6973 28.6309C71.5332 28.7656 71.3325 28.8755 71.0952 28.9604C70.8608 29.0454 70.5884 29.0879 70.2778 29.0879ZM73.0508 28.4727C73.0508 28.3086 73.1064 28.1709 73.2178 28.0596C73.3291 27.9453 73.48 27.8882 73.6704 27.8882C73.8638 27.8882 74.0146 27.9453 74.123 28.0596C74.2344 28.1709 74.29 28.3086 74.29 28.4727C74.29 28.6367 74.2344 28.7744 74.123 28.8857C74.0146 28.9971 73.8638 29.0527 73.6704 29.0527C73.48 29.0527 73.3291 28.9971 73.2178 28.8857C73.1064 28.7744 73.0508 28.6367 73.0508 28.4727ZM75.5557 28.4727C75.5557 28.3086 75.6113 28.1709 75.7227 28.0596C75.834 27.9453 75.9849 27.8882 76.1753 27.8882C76.3687 27.8882 76.5195 27.9453 76.6279 28.0596C76.7393 28.1709 76.7949 28.3086 76.7949 28.4727C76.7949 28.6367 76.7393 28.7744 76.6279 28.8857C76.5195 28.9971 76.3687 29.0527 76.1753 29.0527C75.9849 29.0527 75.834 28.9971 75.7227 28.8857C75.6113 28.7744 75.5557 28.6367 75.5557 28.4727ZM78.0605 28.4727C78.0605 28.3086 78.1162 28.1709 78.2275 28.0596C78.3389 27.9453 78.4897 27.8882 78.6802 27.8882C78.8735 27.8882 79.0244 27.9453 79.1328 28.0596C79.2441 28.1709 79.2998 28.3086 79.2998 28.4727C79.2998 28.6367 79.2441 28.7744 79.1328 28.8857C79.0244 28.9971 78.8735 29.0527 78.6802 29.0527C78.4897 29.0527 78.3389 28.9971 78.2275 28.8857C78.1162 28.7744 78.0605 28.6367 78.0605 28.4727Z" fill="black"/>
</svg>
