<svg width="83" height="69" viewBox="0 0 83 69" fill="none" xmlns="http://www.w3.org/2000/svg">
<path d="M82.832 65.8246C82.832 67.5641 81.4219 68.9741 79.6824 68.9741H3.1495C1.41008 68.9741 0 67.5641 0 65.8246V3.14951C0 1.41009 1.41008 0 3.1495 0H79.6824C81.4219 0 82.832 1.41008 82.832 3.1495V65.8246Z" fill="white"/>
<path d="M51.4617 55.0677C51.4157 55.0677 51.3716 55.0494 51.3391 55.0169C51.3066 54.9844 51.2883 54.9403 51.2883 54.8943V47.7857C51.2883 47.7397 51.3066 47.6956 51.3391 47.6631C51.3716 47.6306 51.4157 47.6123 51.4617 47.6123C51.5077 47.6123 51.5518 47.6306 51.5843 47.6631C51.6168 47.6956 51.6351 47.7397 51.6351 47.7857V54.8943C51.6351 54.9403 51.6168 54.9844 51.5843 55.0169C51.5518 55.0494 51.5077 55.0677 51.4617 55.0677Z" fill="#333333"/>
<path d="M51.224 45.0116C51.1934 45.0116 51.1633 45.0035 51.1369 44.988L41.2862 39.2484C41.2465 39.2252 41.2177 39.1872 41.206 39.1428C41.1943 39.0984 41.2008 39.0511 41.2239 39.0114C41.247 38.9717 41.2849 38.9428 41.3293 38.9311C41.3738 38.9193 41.421 38.9257 41.4608 38.9487L51.3114 44.6883C51.3444 44.7075 51.3701 44.737 51.3846 44.7723C51.399 44.8076 51.4015 44.8466 51.3915 44.8834C51.3816 44.9202 51.3598 44.9527 51.3295 44.9759C51.2992 44.9991 51.2621 45.0116 51.224 45.0116Z" fill="#333333"/>
<path d="M31.523 45.0118C31.4849 45.0119 31.4478 44.9993 31.4176 44.9762C31.3873 44.953 31.3655 44.9205 31.3555 44.8837C31.3455 44.8469 31.348 44.8078 31.3625 44.7726C31.377 44.7373 31.4027 44.7078 31.4356 44.6886L41.2862 38.949C41.326 38.9261 41.3732 38.9198 41.4175 38.9316C41.4618 38.9434 41.4996 38.9723 41.5227 39.0119C41.5458 39.0515 41.5523 39.0987 41.5407 39.1431C41.529 39.1875 41.5003 39.2254 41.4608 39.2487L31.6101 44.9883C31.5837 45.0037 31.5536 45.0118 31.523 45.0118Z" fill="#333333"/>
<path d="M61.4536 53.6805C61.423 53.6805 61.3929 53.6724 61.3665 53.657L51.5158 47.9173C51.4761 47.8942 51.4473 47.8562 51.4356 47.8117C51.4239 47.7673 51.4304 47.7201 51.4535 47.6804C51.4766 47.6407 51.5146 47.6118 51.559 47.6C51.6034 47.5883 51.6506 47.5946 51.6904 47.6177L61.5411 53.3573C61.574 53.3765 61.5997 53.406 61.6142 53.4412C61.6287 53.4765 61.6311 53.5156 61.6211 53.5524C61.6112 53.5892 61.5894 53.6217 61.5591 53.6448C61.5288 53.668 61.4917 53.6805 61.4536 53.6805Z" fill="#333333"/>
<path d="M41.7525 53.6803C41.7144 53.6803 41.6773 53.6678 41.647 53.6446C41.6168 53.6215 41.595 53.589 41.585 53.5522C41.575 53.5154 41.5775 53.4763 41.592 53.441C41.6064 53.4058 41.6321 53.3762 41.6651 53.3571L51.5157 47.6174C51.5555 47.5945 51.6026 47.5883 51.647 47.6001C51.6913 47.6119 51.7291 47.6407 51.7522 47.6804C51.7753 47.72 51.7818 47.7672 51.7702 47.8115C51.7585 47.8559 51.7298 47.8939 51.6903 47.9171L41.8396 53.6567C41.8132 53.6721 41.7831 53.6803 41.7525 53.6803Z" fill="#333333"/>
<path d="M41.4056 36.1688C41.3597 36.1688 41.3157 36.1506 41.2832 36.1182C41.2506 36.0858 41.2323 36.0418 41.2322 35.9958L41.2162 29.687C41.2161 29.6642 41.2206 29.6417 41.2292 29.6206C41.2379 29.5995 41.2506 29.5804 41.2667 29.5643C41.2827 29.5481 41.3018 29.5353 41.3228 29.5265C41.3438 29.5178 41.3664 29.5132 41.3891 29.5132H41.3896C41.4355 29.5132 41.4795 29.5314 41.512 29.5638C41.5445 29.5962 41.5628 29.6402 41.5629 29.6861L41.579 35.995C41.5791 36.0178 41.5746 36.0403 41.566 36.0614C41.5573 36.0825 41.5446 36.1016 41.5285 36.1177C41.5125 36.1339 41.4934 36.1467 41.4724 36.1555C41.4513 36.1642 41.4288 36.1688 41.406 36.1688L41.4056 36.1688Z" fill="#333333"/>
<path d="M43.648 39.4484H39.131C38.9242 39.4481 38.7259 39.3659 38.5796 39.2196C38.4333 39.0733 38.3511 38.875 38.3508 38.6682V36.3481C38.3511 36.1412 38.4333 35.9429 38.5796 35.7967C38.7259 35.6504 38.9242 35.5681 39.131 35.5679H43.648C43.8548 35.5681 44.0531 35.6504 44.1994 35.7967C44.3457 35.9429 44.428 36.1412 44.4282 36.3481V38.6682C44.428 38.875 44.3457 39.0733 44.1994 39.2196C44.0531 39.3659 43.8548 39.4481 43.648 39.4484Z" fill="#E0E0E0"/>
<path d="M36.1721 27.6554H26.561C26.515 27.6554 26.4709 27.6371 26.4384 27.6046C26.4058 27.5721 26.3876 27.528 26.3876 27.482C26.3876 27.436 26.4058 27.3919 26.4384 27.3594C26.4709 27.3269 26.515 27.3086 26.561 27.3086H36.1721C36.2181 27.3086 36.2622 27.3269 36.2947 27.3594C36.3272 27.3919 36.3455 27.436 36.3455 27.482C36.3455 27.528 36.3272 27.5721 36.2947 27.6046C36.2622 27.6371 36.2181 27.6554 36.1721 27.6554Z" fill="#333333"/>
<path d="M41.3896 25.179C41.3436 25.179 41.2995 25.1608 41.267 25.1282C41.2345 25.0957 41.2162 25.0516 41.2162 25.0056V19.0044C41.2162 18.9585 41.2345 18.9144 41.267 18.8818C41.2995 18.8493 41.3436 18.8311 41.3896 18.8311C41.4356 18.8311 41.4796 18.8493 41.5122 18.8818C41.5447 18.9144 41.5629 18.9585 41.5629 19.0044V25.0056C41.5629 25.0516 41.5447 25.0957 41.5122 25.1282C41.4796 25.1608 41.4356 25.179 41.3896 25.179Z" fill="#333333"/>
<path d="M22.8216 27.6555C22.7906 27.6555 22.7601 27.6472 22.7334 27.6313L13.4029 22.1012C13.3634 22.0776 13.3349 22.0395 13.3236 21.995C13.3123 21.9505 13.3191 21.9033 13.3425 21.8638C13.3659 21.8243 13.404 21.7957 13.4485 21.7843C13.4929 21.7728 13.5401 21.7795 13.5797 21.8028L22.9102 27.333C22.9429 27.3524 22.9683 27.382 22.9825 27.4172C22.9968 27.4525 22.999 27.4914 22.989 27.5281C22.9789 27.5647 22.9571 27.597 22.9268 27.6201C22.8966 27.6431 22.8596 27.6556 22.8216 27.6555Z" fill="#333333"/>
<path d="M13.4914 33.1855C13.4534 33.1856 13.4164 33.1731 13.3862 33.1501C13.356 33.1271 13.3341 33.0947 13.3241 33.0581C13.314 33.0214 13.3163 32.9825 13.3305 32.9472C13.3447 32.912 13.3701 32.8824 13.4028 32.863L22.7334 27.3328C22.7729 27.3094 22.8202 27.3026 22.8647 27.314C22.9093 27.3254 22.9475 27.354 22.9709 27.3936C22.9944 27.4331 23.0012 27.4804 22.9898 27.525C22.9784 27.5695 22.9497 27.6077 22.9102 27.6312L13.5796 33.1613C13.5529 33.1772 13.5225 33.1856 13.4914 33.1855Z" fill="#333333"/>
<path d="M25.8674 30.4523H23.5473C23.3405 30.4521 23.1421 30.3698 22.9959 30.2235C22.8496 30.0773 22.7673 29.879 22.7671 29.6721V25.1552C22.7673 24.9484 22.8496 24.75 22.9959 24.6038C23.1421 24.4575 23.3405 24.3752 23.5473 24.375H25.8674C26.0743 24.3752 26.2726 24.4575 26.4188 24.6038C26.5651 24.75 26.6474 24.9484 26.6476 25.1552V29.6721C26.6474 29.879 26.5651 30.0773 26.4188 30.2235C26.2726 30.3698 26.0743 30.4521 25.8674 30.4523Z" fill="#E0E0E0"/>
<path d="M43.648 19.4709H39.131C38.9242 19.4707 38.7259 19.3884 38.5796 19.2421C38.4333 19.0959 38.3511 18.8976 38.3508 18.6907V16.3705C38.3511 16.1637 38.4333 15.9654 38.5796 15.8191C38.7259 15.6728 38.9242 15.5906 39.131 15.5903H43.648C43.8548 15.5906 44.0531 15.6728 44.1994 15.8191C44.3457 15.9654 44.428 16.1637 44.4282 16.3705V18.6907C44.428 18.8976 44.3457 19.0959 44.1994 19.2421C44.0531 19.3884 43.8548 19.4707 43.648 19.4709Z" fill="#E0E0E0"/>
<path d="M12.8639 25.0768H10.5438C10.3369 25.0766 10.1386 24.9943 9.99232 24.8481C9.84605 24.7018 9.76378 24.5035 9.76355 24.2966V19.7797C9.76378 19.5729 9.84605 19.3746 9.99232 19.2283C10.1386 19.082 10.3369 18.9997 10.5438 18.9995H12.8639C13.0707 18.9997 13.269 19.082 13.4153 19.2283C13.5616 19.3746 13.6438 19.5729 13.6441 19.7797V24.2966C13.6438 24.5035 13.5616 24.7018 13.4153 24.8481C13.269 24.9943 13.0707 25.0766 12.8639 25.0768Z" fill="#E0E0E0"/>
<path d="M12.8639 36.0002H10.5438C10.3369 35.9999 10.1386 35.9177 9.99232 35.7714C9.84605 35.6251 9.76378 35.4268 9.76355 35.22V30.7031C9.76378 30.4962 9.84605 30.2979 9.99232 30.1516C10.1386 30.0054 10.3369 29.9231 10.5438 29.9229H12.8639C13.0707 29.9231 13.269 30.0054 13.4153 30.1516C13.5616 30.2979 13.6438 30.4962 13.6441 30.7031V35.22C13.6438 35.4268 13.5616 35.6251 13.4153 35.7714C13.269 35.9177 13.0707 35.9999 12.8639 36.0002Z" fill="#E0E0E0"/>
<path d="M56.2182 27.6554H46.6071C46.5611 27.6554 46.517 27.6371 46.4845 27.6046C46.452 27.5721 46.4337 27.528 46.4337 27.482C46.4337 27.436 46.452 27.3919 46.4845 27.3594C46.517 27.3269 46.5611 27.3086 46.6071 27.3086H56.2182C56.2642 27.3086 56.3083 27.3269 56.3408 27.3594C56.3734 27.3919 56.3916 27.436 56.3916 27.482C56.3916 27.528 56.3734 27.5721 56.3408 27.6046C56.3083 27.6371 56.2642 27.6554 56.2182 27.6554Z" fill="#333333"/>
<path d="M59.9576 27.6553C59.9196 27.6553 59.8826 27.6428 59.8524 27.6198C59.8221 27.5968 59.8003 27.5644 59.7902 27.5278C59.7802 27.4911 59.7824 27.4522 59.7967 27.4169C59.8109 27.3817 59.8364 27.3521 59.8691 27.3327L69.1996 21.8025C69.2192 21.7909 69.2408 21.7833 69.2634 21.7801C69.2859 21.7768 69.3089 21.7781 69.3309 21.7837C69.353 21.7894 69.3737 21.7993 69.3919 21.813C69.4102 21.8266 69.4255 21.8437 69.4371 21.8633C69.4487 21.8829 69.4564 21.9046 69.4596 21.9271C69.4628 21.9497 69.4616 21.9726 69.4559 21.9947C69.4503 22.0167 69.4404 22.0375 69.4267 22.0557C69.413 22.0739 69.3959 22.0893 69.3763 22.1009L60.0458 27.631C60.0191 27.6469 59.9887 27.6553 59.9576 27.6553Z" fill="#333333"/>
<path d="M69.2878 33.1855C69.2567 33.1855 69.2263 33.1772 69.1996 33.1613L59.8691 27.6311C59.8295 27.6077 59.8009 27.5695 59.7895 27.525C59.7781 27.4804 59.7848 27.4332 59.8083 27.3936C59.8317 27.354 59.8699 27.3254 59.9145 27.314C59.959 27.3026 60.0063 27.3094 60.0458 27.3328L69.3763 32.863C69.409 32.8824 69.4345 32.9119 69.4487 32.9472C69.463 32.9824 69.4652 33.0214 69.4552 33.0581C69.4451 33.0947 69.4233 33.1271 69.393 33.1501C69.3628 33.1731 69.3258 33.1856 69.2878 33.1855Z" fill="#333333"/>
<path d="M59.2318 30.4523H56.9117C56.7048 30.4521 56.5065 30.3698 56.3602 30.2235C56.214 30.0773 56.1317 29.879 56.1315 29.6721V25.1552C56.1317 24.9484 56.214 24.75 56.3602 24.6038C56.5065 24.4575 56.7048 24.3752 56.9117 24.375H59.2318C59.4386 24.3752 59.6369 24.4575 59.7832 24.6038C59.9295 24.75 60.0117 24.9484 60.012 25.1552V29.6721C60.0117 29.879 59.9295 30.0773 59.7832 30.2235C59.6369 30.3698 59.4386 30.4521 59.2318 30.4523Z" fill="#E0E0E0"/>
<path d="M72.2354 25.0768H69.9153C69.7085 25.0766 69.5102 24.9943 69.3639 24.8481C69.2176 24.7018 69.1354 24.5035 69.1351 24.2966V19.7797C69.1354 19.5729 69.2176 19.3746 69.3639 19.2283C69.5102 19.082 69.7085 18.9997 69.9153 18.9995H72.2354C72.4423 18.9997 72.6406 19.082 72.7869 19.2283C72.9331 19.3746 73.0154 19.5729 73.0156 19.7797V24.2966C73.0154 24.5035 72.9331 24.7018 72.7869 24.8481C72.6406 24.9943 72.4423 25.0766 72.2354 25.0768Z" fill="#E0E0E0"/>
<path d="M72.2354 36.0002H69.9153C69.7085 35.9999 69.5102 35.9177 69.3639 35.7714C69.2176 35.6251 69.1354 35.4268 69.1351 35.22V30.7031C69.1354 30.4962 69.2176 30.2979 69.3639 30.1516C69.5102 30.0054 69.7085 29.9231 69.9153 29.9229H72.2354C72.4423 29.9231 72.6406 30.0054 72.7869 30.1516C72.9331 30.2979 73.0154 30.4962 73.0156 30.7031V35.22C73.0154 35.4268 72.9331 35.6251 72.7869 35.7714C72.6406 35.9177 72.4423 35.9999 72.2354 36.0002Z" fill="#E0E0E0"/>
<path d="M33.5919 48.2912H29.075C28.8682 48.2909 28.6698 48.2087 28.5236 48.0624C28.3773 47.9161 28.295 47.7178 28.2948 47.5109V45.1909C28.295 44.984 28.3773 44.7857 28.5236 44.6394C28.6698 44.4932 28.8682 44.4109 29.075 44.4106H33.5919C33.7988 44.4109 33.9971 44.4932 34.1434 44.6394C34.2897 44.7857 34.3719 44.984 34.3722 45.1909V47.5109C34.3719 47.7178 34.2897 47.9161 34.1434 48.0624C33.9971 48.2087 33.7988 48.2909 33.5919 48.2912Z" fill="#E0E0E0"/>
<path d="M53.6721 48.2912H49.1552C48.9484 48.2909 48.75 48.2086 48.6038 48.0624C48.4575 47.9161 48.3752 47.7178 48.375 47.5109V45.1909C48.3752 44.984 48.4575 44.7857 48.6038 44.6394C48.75 44.4932 48.9484 44.4109 49.1552 44.4106H53.6721C53.879 44.4109 54.0773 44.4932 54.2236 44.6394C54.3698 44.7857 54.4521 44.984 54.4524 45.1909V47.5109C54.4521 47.7178 54.3698 47.9161 54.2236 48.0624C54.0773 48.2086 53.879 48.2909 53.6721 48.2912Z" fill="#E0E0E0"/>
<path d="M44.4829 56.7868H39.966C39.7592 56.7865 39.5608 56.7042 39.4146 56.558C39.2683 56.4117 39.186 56.2134 39.1858 56.0065V53.6865C39.186 53.4796 39.2683 53.2813 39.4146 53.135C39.5608 52.9888 39.7592 52.9065 39.966 52.9062H44.4829C44.6898 52.9065 44.8881 52.9888 45.0344 53.135C45.1806 53.2813 45.2629 53.4796 45.2631 53.6865V56.0065C45.2629 56.2134 45.1806 56.4117 45.0344 56.558C44.8881 56.7042 44.6898 56.7865 44.4829 56.7868Z" fill="#E0E0E0"/>
<path d="M63.7282 56.7868H59.2112C59.0044 56.7865 58.8061 56.7042 58.6598 56.558C58.5135 56.4117 58.4313 56.2134 58.431 56.0065V53.6865C58.4313 53.4796 58.5135 53.2813 58.6598 53.135C58.8061 52.9888 59.0044 52.9065 59.2112 52.9062H63.7282C63.935 52.9065 64.1333 52.9888 64.2796 53.135C64.4259 53.2813 64.5082 53.4796 64.5084 53.6865V56.0065C64.5082 56.2134 64.4259 56.4117 64.2796 56.558C64.1333 56.7042 63.935 56.7865 63.7282 56.7868Z" fill="#E0E0E0"/>
<path d="M53.6721 56.7868H49.1552C48.9484 56.7865 48.75 56.7042 48.6038 56.558C48.4575 56.4117 48.3752 56.2134 48.375 56.0065V53.6865C48.3752 53.4796 48.4575 53.2813 48.6038 53.135C48.75 52.9888 48.9484 52.9065 49.1552 52.9062H53.6721C53.879 52.9065 54.0773 52.9888 54.2236 53.135C54.3698 53.2813 54.4521 53.4796 54.4524 53.6865V56.0065C54.4521 56.2134 54.3698 56.4117 54.2236 56.558C54.0773 56.7042 53.879 56.7865 53.6721 56.7868Z" fill="#E0E0E0"/>
<path d="M46.8804 30.4981H35.8987C35.6919 30.4979 35.4936 30.4156 35.3473 30.2693C35.201 30.1231 35.1188 29.9247 35.1185 29.7179V25.246C35.1188 25.0392 35.201 24.8409 35.3473 24.6946C35.4936 24.5483 35.6919 24.4661 35.8987 24.4658H46.8804C47.0873 24.4661 47.2856 24.5483 47.4319 24.6946C47.5781 24.8409 47.6604 25.0392 47.6607 25.246V29.7179C47.6604 29.9247 47.5781 30.1231 47.4319 30.2693C47.2856 30.4156 47.0873 30.4979 46.8804 30.4981Z" fill="#3655F3"/>
<path d="M82.832 65.8246C82.832 67.5641 81.4219 68.9741 79.6824 68.9741H3.1495C1.41008 68.9741 0 67.5641 0 65.8246V3.14951C0 1.41009 1.41008 0 3.1495 0H79.6824C81.4219 0 82.832 1.41008 82.832 3.1495V65.8246Z" fill="white"/>
<path d="M82.832 66.7695C82.832 67.9871 81.8449 68.9741 80.6273 68.9741H2.20465C0.987052 68.9741 0 67.9871 0 66.7695V2.20465C0 0.987057 0.987056 0 2.20465 0H80.6273C81.8449 0 82.832 0.987057 82.832 2.20465V66.7695ZM1.22384 65.4457C1.22384 66.6633 2.21089 67.6503 3.42849 67.6503H79.4035C80.6211 67.6503 81.6081 66.6633 81.6081 65.4457V3.52848C81.6081 2.31089 80.6211 1.32383 79.4035 1.32383H3.42849C2.21089 1.32383 1.22384 2.31089 1.22384 3.52848V65.4457Z" fill="#E0E0E0"/>
<line x1="7.2299" y1="50.5455" x2="76.2472" y2="21.2654" stroke="#5EBE5E" stroke-width="0.629901"/>
<path d="M11.3038 46.1567H11.0424V46.941H11.3038V46.1567Z" fill="#E0E0E0"/>
<path d="M39.9304 46.1567H39.6689V46.941H39.9304V46.1567Z" fill="#E0E0E0"/>
<path d="M54.3703 30.8135H54.1089V31.5978H54.3703V30.8135Z" fill="#E0E0E0"/>
<path d="M68.6663 24.5396H68.4049V25.3238H68.6663V24.5396Z" fill="#E0E0E0"/>
<path d="M25.6824 35.6504H25.421V36.4347H25.6824V35.6504Z" fill="#E0E0E0"/>
<path d="M11.1731 47.7816C12.0707 47.7816 12.7983 47.0539 12.7983 46.1564C12.7983 45.2589 12.0707 44.5312 11.1731 44.5312C10.2756 44.5312 9.54797 45.2589 9.54797 46.1564C9.54797 47.0539 10.2756 47.7816 11.1731 47.7816Z" fill="#3655F3"/>
<path d="M25.5287 37.2181C26.4263 37.2181 27.1539 36.4905 27.1539 35.5929C27.1539 34.6954 26.4263 33.9678 25.5287 33.9678C24.6312 33.9678 23.9036 34.6954 23.9036 35.5929C23.9036 36.4905 24.6312 37.2181 25.5287 37.2181Z" fill="#3655F3"/>
<path d="M30.4153 46.5047C31.3129 46.5047 32.0405 45.7771 32.0405 44.8795C32.0405 43.982 31.3129 43.2544 30.4153 43.2544C29.5178 43.2544 28.7902 43.982 28.7902 44.8795C28.7902 45.7771 29.5178 46.5047 30.4153 46.5047Z" fill="#3655F3"/>
<path d="M43.2252 36.4398C44.1228 36.4398 44.8504 35.7122 44.8504 34.8146C44.8504 33.9171 44.1228 33.1895 43.2252 33.1895C42.3277 33.1895 41.6001 33.9171 41.6001 34.8146C41.6001 35.7122 42.3277 36.4398 43.2252 36.4398Z" fill="#3655F3"/>
<path d="M63.7475 36.0472C64.645 36.0472 65.3726 35.3196 65.3726 34.422C65.3726 33.5245 64.645 32.7969 63.7475 32.7969C62.8499 32.7969 62.1223 33.5245 62.1223 34.422C62.1223 35.3196 62.8499 36.0472 63.7475 36.0472Z" fill="#3655F3"/>
<path d="M47.5388 31.2112C48.4364 31.2112 49.164 30.4836 49.164 29.5861C49.164 28.6885 48.4364 27.9609 47.5388 27.9609C46.6413 27.9609 45.9137 28.6885 45.9137 29.5861C45.9137 30.4836 46.6413 31.2112 47.5388 31.2112Z" fill="#3655F3"/>
<path d="M39.8841 47.7816C40.7816 47.7816 41.5092 47.0539 41.5092 46.1564C41.5092 45.2589 40.7816 44.5312 39.8841 44.5312C38.9865 44.5312 38.2589 45.2589 38.2589 46.1564C38.2589 47.0539 38.9865 47.7816 39.8841 47.7816Z" fill="#3655F3"/>
<path d="M54.2397 32.0721C55.1372 32.0721 55.8648 31.3445 55.8648 30.4469C55.8648 29.5494 55.1372 28.8218 54.2397 28.8218C53.3421 28.8218 52.6145 29.5494 52.6145 30.4469C52.6145 31.3445 53.3421 32.0721 54.2397 32.0721Z" fill="#3655F3"/>
<path d="M68.5951 26.1131C69.4927 26.1131 70.2203 25.3855 70.2203 24.4879C70.2203 23.5904 69.4927 22.8628 68.5951 22.8628C67.6976 22.8628 66.97 23.5904 66.97 24.4879C66.97 25.3855 67.6976 26.1131 68.5951 26.1131Z" fill="#3655F3"/>
</svg>
